<svg width="512" height="512" viewBox="0 0 512 512" fill="none" xmlns="http://www.w3.org/2000/svg">
<path d="M123.606 495.206C159.522 499.587 207.221 502 257.918 502C308.386 502 355.412 499.586 390.332 495.2C441.893 488.732 449 480.685 449 472.954C448.987 471.435 448.655 469.937 448.027 468.554C434.847 438.616 424.727 413.142 418.161 386.127L414.271 370.109C414 368.542 413.206 367.113 412.02 366.054C410.833 364.995 409.323 364.369 407.735 364.277C371.435 362.077 345.912 353.972 327.414 338.777C309.236 323.845 297.704 301.86 291.126 269.593C290.823 268.101 290.217 266.687 289.346 265.438C288.475 264.189 287.357 263.132 286.061 262.332L285.049 225.913C284.973 222.562 283.584 219.374 281.181 217.036C278.779 214.699 275.554 213.397 272.202 213.413H262.1V16C262.1 14.4087 261.468 12.8826 260.343 11.7574C259.217 10.6321 257.691 10 256.1 10C254.509 10 252.983 10.6321 251.857 11.7574C250.732 12.8826 250.1 14.4087 250.1 16V213.41H241.663C238.254 213.415 234.987 214.772 232.578 217.183C230.168 219.594 228.814 222.862 228.811 226.271V261.05C226.819 261.579 225.014 262.652 223.597 264.149C222.181 265.646 221.209 267.508 220.791 269.526C208.791 328.396 170.998 359.335 105.27 364.109C103.625 364.187 102.055 364.818 100.815 365.901C99.5746 366.984 98.7366 368.454 98.4371 370.073L96.6121 377.141C88.5311 408.449 76.5251 438.313 63.8971 468.692C63.3183 470.039 63.0124 471.488 62.9971 472.954C63.0001 480.671 70.3421 488.708 123.606 495.206ZM240.811 226.271C240.81 226.044 240.899 225.826 241.059 225.664C241.219 225.503 241.436 225.411 241.663 225.41H272.2C272.423 225.41 272.638 225.498 272.797 225.654C272.956 225.811 273.047 226.024 273.051 226.247L274.008 260.683H240.808L240.811 226.271ZM107.8 381.768C110.061 382.687 112.375 383.468 114.73 384.109C122.73 386.365 134.073 388.376 148.43 390.087C177.552 393.558 216.22 395.469 257.311 395.469C260.848 395.469 264.362 395.454 267.854 395.425C268.642 395.42 269.421 395.259 270.147 394.953C270.873 394.647 271.532 394.2 272.085 393.639C272.638 393.078 273.076 392.414 273.373 391.684C273.669 390.954 273.819 390.173 273.814 389.385C273.809 388.597 273.648 387.818 273.342 387.092C273.036 386.366 272.589 385.708 272.028 385.154C271.468 384.601 270.803 384.163 270.073 383.866C269.343 383.57 268.562 383.42 267.774 383.425C264.307 383.455 260.82 383.47 257.311 383.471C219.84 383.471 183.863 381.836 156.011 378.871C145.268 377.843 134.589 376.237 124.019 374.061C150.319 369.95 172.18 361.138 189.176 347.771C211.062 330.558 225.602 305.297 232.395 272.688H279.513C286.698 307.426 299.513 331.388 319.799 348.054C336.751 361.98 358.577 370.516 387.567 374.405C377.688 376.395 367.716 377.888 357.687 378.878C345.697 380.178 332.118 381.217 317.509 381.978C315.973 382.057 314.526 382.723 313.467 383.837C312.408 384.952 311.817 386.431 311.817 387.969C311.817 388.784 311.983 389.591 312.305 390.34C312.627 391.089 313.098 391.765 313.689 392.326C314.28 392.888 314.98 393.323 315.745 393.605C316.51 393.888 317.324 394.011 318.138 393.969C335.554 393.06 351.519 391.755 365.248 390.089C385.339 387.653 397.548 384.919 404.775 381.847L406.503 388.963C413.567 418.048 425.078 446.153 436.551 472.263C433.824 474.14 422.865 479.453 382.581 484.045C348.9 487.885 304.627 490 257.918 490C210.983 490 166.067 487.882 131.443 484.037C89.6811 479.399 78.2881 474.057 75.4431 472.168C87.8601 442.284 99.6351 412.839 107.8 381.768Z" fill="#F1D1AF"/>
<path d="M110.984 426.273C109.471 425.782 107.824 425.912 106.407 426.634C104.989 427.357 103.917 428.613 103.425 430.126L94.8 456.675C94.5466 457.427 94.4449 458.221 94.5007 459.013C94.5565 459.804 94.7687 460.577 95.1251 461.286C95.4814 461.995 95.9749 462.626 96.5768 463.143C97.1787 463.66 97.8772 464.052 98.6317 464.297C99.3863 464.542 100.182 464.635 100.973 464.571C101.764 464.507 102.534 464.286 103.239 463.922C103.944 463.558 104.57 463.058 105.08 462.45C105.59 461.843 105.975 461.14 106.212 460.383L114.837 433.833C115.329 432.319 115.199 430.673 114.476 429.255C113.754 427.837 112.497 426.765 110.984 426.273Z" fill="#F1D1AF"/>
<path d="M118.572 402.915C117.058 402.423 115.412 402.553 113.994 403.276C112.576 403.998 111.503 405.255 111.012 406.768L109.112 412.625C108.868 413.374 108.775 414.165 108.837 414.95C108.899 415.736 109.115 416.501 109.473 417.203C109.831 417.905 110.323 418.53 110.922 419.042C111.522 419.553 112.216 419.942 112.965 420.186C113.715 420.429 114.505 420.522 115.29 420.46C116.076 420.399 116.842 420.182 117.544 419.825C118.246 419.467 118.87 418.974 119.382 418.375C119.894 417.776 120.282 417.081 120.526 416.332L122.426 410.475C122.669 409.726 122.763 408.936 122.701 408.15C122.639 407.364 122.423 406.599 122.065 405.897C121.707 405.195 121.214 404.57 120.615 404.059C120.015 403.547 119.321 403.158 118.572 402.915Z" fill="#F1D1AF"/>
</svg>
