<svg xmlns="http://www.w3.org/2000/svg" xmlns:xlink="http://www.w3.org/1999/xlink" version="1.1" x="0px" y="0px" viewBox="0 0 96 99.818" enable-background="new 0 0 96 99.818" xml:space="preserve" style="max-width:100%" height="100%"><g style="">
<path d="M48.066,25.249c-2.387,0-4.322-1.929-4.322-4.323v-8.644c0-2.393,1.936-4.322,4.322-4.322c2.385,0,4.322,1.93,4.322,4.322   v8.644C52.389,23.32,50.451,25.249,48.066,25.249" style=""></path>
<path d="M69.462,34.112c-1.106,0-2.213-0.421-3.057-1.266c-1.689-1.692-1.689-4.424,0-6.112l6.111-6.112   c1.691-1.691,4.422-1.691,6.112,0c1.69,1.693,1.69,4.424,0,6.112l-6.112,6.112C71.676,33.691,70.567,34.112,69.462,34.112" style=""></path>
<path d="M86.965,55.512h-8.644c-2.388,0-4.322-1.934-4.322-4.323c0-2.389,1.936-4.321,4.322-4.321h8.644   c2.386,0,4.323,1.933,4.323,4.321C91.288,53.58,89.35,55.512,86.965,55.512" style=""></path>
<path d="M75.564,83.023c-1.104,0-2.215-0.432-3.057-1.274l-6.111-6.11c-1.69-1.688-1.69-4.421,0-6.104   c1.691-1.692,4.423-1.692,6.111,0l6.112,6.104c1.69,1.694,1.69,4.427,0,6.11C77.776,82.593,76.671,83.023,75.564,83.023" style=""></path>
<path d="M20.547,83.007c-1.105,0-2.211-0.422-3.056-1.267c-1.69-1.692-1.69-4.424,0-6.111l6.112-6.111   c1.691-1.692,4.422-1.692,6.112,0c1.691,1.691,1.691,4.424,0,6.111l-6.113,6.111C22.761,82.585,21.653,83.007,20.547,83.007" style=""></path>
<path d="M17.805,55.495H9.161c-2.385,0-4.323-1.933-4.323-4.321c0-2.39,1.938-4.322,4.323-4.322h8.644   c2.388,0,4.323,1.933,4.323,4.322C22.127,53.562,20.193,55.495,17.805,55.495" style=""></path>
<path d="M26.675,34.104c-1.105,0-2.213-0.428-3.055-1.268l-6.112-6.11c-1.689-1.692-1.689-4.424,0-6.112   c1.691-1.688,4.422-1.688,6.112,0l6.112,6.112c1.69,1.692,1.69,4.423,0,6.11C28.889,33.677,27.782,34.104,26.675,34.104" style=""></path></g><g style="">
<path d="M48.062,32.34c-10.68,0-19.34,8.659-19.34,19.34c0,6.804,3.523,12.776,8.836,16.224v11.111   c0,5.792,4.712,10.504,10.504,10.504s10.504-4.712,10.504-10.504V67.903c5.313-3.447,8.837-9.419,8.837-16.224   C67.403,40.999,58.743,32.34,48.062,32.34z M48.062,63.757c-6.805,0-12.322-5.517-12.322-12.322   c0-6.805,5.517-12.321,12.322-12.321c6.806,0,12.322,5.517,12.322,12.321C60.385,58.24,54.868,63.757,48.062,63.757z" style=""></path></g></svg>