<svg xmlns="http://www.w3.org/2000/svg" xml:space="preserve" style="max-width:100%" viewBox="0 0 96 99.818"><g fill="currentColor"><path d="M48.066 25.249a4.318 4.318 0 0 1-4.322-4.323v-8.644a4.319 4.319 0 0 1 4.322-4.322 4.32 4.32 0 0 1 4.322 4.322v8.644a4.319 4.319 0 0 1-4.322 4.323M69.462 34.112a4.32 4.32 0 0 1-3.057-7.378l6.111-6.112a4.316 4.316 0 0 1 6.112 0 4.318 4.318 0 0 1 0 6.112l-6.112 6.112a4.294 4.294 0 0 1-3.054 1.266M86.965 55.512h-8.644a4.32 4.32 0 0 1-4.322-4.323 4.32 4.32 0 0 1 4.322-4.321h8.644a4.322 4.322 0 1 1 0 8.644M75.564 83.023a4.327 4.327 0 0 1-3.057-1.274l-6.111-6.11a4.308 4.308 0 0 1 0-6.104 4.313 4.313 0 0 1 6.111 0l6.112 6.104a4.315 4.315 0 0 1 0 6.11 4.311 4.311 0 0 1-3.055 1.274M20.547 83.007a4.309 4.309 0 0 1-3.056-1.267 4.317 4.317 0 0 1 0-6.111l6.112-6.111a4.314 4.314 0 0 1 6.112 0 4.315 4.315 0 0 1 0 6.111l-6.113 6.111a4.298 4.298 0 0 1-3.055 1.267M17.805 55.495H9.161a4.323 4.323 0 1 1 0-8.643h8.644a4.32 4.32 0 1 1 0 8.643M26.675 34.104a4.323 4.323 0 0 1-3.055-1.268l-6.112-6.11a4.321 4.321 0 1 1 6.112-6.112l6.112 6.112a4.315 4.315 0 0 1 0 6.11 4.322 4.322 0 0 1-3.057 1.268"/></g><path fill="currentColor" d="M48.062 32.34c-10.68 0-19.34 8.659-19.34 19.34 0 6.804 3.523 12.776 8.836 16.224v11.111c0 5.792 4.712 10.504 10.504 10.504s10.504-4.712 10.504-10.504V67.903c5.313-3.447 8.837-9.419 8.837-16.224 0-10.68-8.66-19.339-19.341-19.339zm0 31.417c-6.805 0-12.322-5.517-12.322-12.322 0-6.805 5.517-12.321 12.322-12.321 6.806 0 12.322 5.517 12.322 12.321.001 6.805-5.516 12.322-12.322 12.322z"/></svg>