<svg width="512" height="512" viewBox="0 0 512 512" fill="none" xmlns="http://www.w3.org/2000/svg">
<path d="M287.594 169.171C286.857 166.799 285.378 164.725 283.376 163.254C281.374 161.784 278.953 160.994 276.469 161H274.357V154.431H348.548C351.11 154.465 353.628 153.76 355.8 152.4C357.923 151.042 359.608 149.099 360.65 146.805C361.692 144.51 362.048 141.963 361.674 139.471L353.74 85.8559C353.492 84.2951 352.638 82.8952 351.364 81.9601C350.09 81.025 348.499 80.6303 346.936 80.8617C345.372 81.0931 343.963 81.9319 343.015 83.196C342.066 84.46 341.655 86.0472 341.87 87.6129L349.807 141.25C349.831 141.397 349.822 141.548 349.781 141.691C349.74 141.835 349.668 141.968 349.57 142.08C349.476 142.191 349.359 142.281 349.227 142.342C349.095 142.403 348.95 142.433 348.805 142.432H163.2C163.054 142.433 162.91 142.403 162.778 142.342C162.646 142.281 162.528 142.191 162.435 142.08C162.335 141.964 162.262 141.828 162.222 141.68C162.182 141.533 162.175 141.378 162.202 141.228L179.715 22.8719C179.749 22.6307 179.869 22.4098 180.052 22.2496C180.236 22.0895 180.471 22.0009 180.715 21.9999H331.282C331.523 21.9986 331.756 22.0835 331.939 22.2392C332.123 22.395 332.244 22.6112 332.282 22.8489L334.467 37.6149C334.7 39.1891 335.548 40.6063 336.826 41.5548C338.104 42.5032 339.706 42.9053 341.28 42.6724C342.855 42.4395 344.272 41.5909 345.22 40.3131C346.169 39.0353 346.571 37.4331 346.338 35.8589L344.148 21.0699C343.697 17.9842 342.147 15.1652 339.783 13.1313C337.419 11.0974 334.4 9.98542 331.282 9.9999H180.718C177.596 9.98668 174.574 11.1018 172.209 13.14C169.844 15.1782 168.296 18.0022 167.848 21.0919L150.335 139.451C149.979 141.79 150.266 144.182 151.166 146.37C152.066 148.558 153.544 150.46 155.443 151.872C157.789 153.574 160.623 154.473 163.522 154.434H240.744V161.012C238.321 161.055 235.972 161.852 234.023 163.292C232.074 164.733 230.623 166.744 229.871 169.048L125.289 493.842C125.04 494.594 124.942 495.388 125.001 496.178C125.06 496.968 125.276 497.738 125.634 498.445C125.993 499.151 126.487 499.779 127.09 500.294C127.693 500.808 128.391 501.197 129.145 501.44C129.899 501.683 130.694 501.774 131.483 501.708C132.273 501.642 133.042 501.421 133.745 501.056C134.448 500.692 135.072 500.192 135.582 499.585C136.091 498.978 136.474 498.276 136.711 497.52L241.2 173H251.547V496C251.547 497.591 252.179 499.117 253.304 500.243C254.429 501.368 255.956 502 257.547 502C259.138 502 260.664 501.368 261.79 500.243C262.915 499.117 263.547 497.591 263.547 496V173H276.213L375.258 497.43C375.476 498.197 375.845 498.913 376.343 499.536C376.841 500.158 377.458 500.676 378.159 501.057C378.859 501.439 379.628 501.677 380.422 501.758C381.215 501.838 382.016 501.76 382.779 501.527C383.542 501.295 384.251 500.912 384.864 500.403C385.477 499.893 385.983 499.266 386.351 498.559C386.719 497.851 386.943 497.078 387.009 496.283C387.074 495.488 386.981 494.688 386.734 493.93L287.594 169.171ZM262.357 161H252.744V154.431H262.357V161Z" fill="#F1D1AF"/>
<path d="M180.806 74.7091L173.561 119.463C173.307 121.034 173.687 122.641 174.618 123.932C175.55 125.223 176.955 126.09 178.526 126.345C180.097 126.599 181.704 126.219 182.995 125.288C184.285 124.357 185.153 122.951 185.407 121.38L192.651 76.6271C192.787 75.8453 192.766 75.0444 192.59 74.2707C192.413 73.4971 192.085 72.7661 191.625 72.12C191.164 71.474 190.58 70.9257 189.906 70.5069C189.232 70.0882 188.482 69.8072 187.699 69.6804C186.915 69.5536 186.115 69.5834 185.343 69.768C184.571 69.9527 183.844 70.2886 183.203 70.7563C182.562 71.224 182.02 71.8142 181.609 72.4927C181.197 73.1711 180.925 73.9245 180.806 74.7091Z" fill="#F1D1AF"/>
<path d="M195.878 56.6939L197.517 46.5689C197.643 45.7911 197.614 44.9961 197.433 44.2293C197.252 43.4625 196.921 42.739 196.46 42.1C195.999 41.461 195.417 40.919 194.746 40.5051C194.076 40.0911 193.33 39.8133 192.553 39.6874C191.775 39.5615 190.98 39.5901 190.213 39.7715C189.446 39.9528 188.723 40.2835 188.084 40.7445C186.793 41.6755 185.925 43.081 185.671 44.6519L184.032 54.7769C183.906 55.555 183.935 56.3503 184.116 57.1173C184.298 57.8844 184.629 58.6081 185.09 59.2472C185.552 59.8864 186.134 60.4283 186.805 60.8421C187.476 61.2559 188.222 61.5335 189 61.6589C189.32 61.7104 189.643 61.7365 189.966 61.7369C191.39 61.7342 192.766 61.2256 193.849 60.3018C194.932 59.3779 195.651 58.0992 195.878 56.6939Z" fill="#F1D1AF"/>
</svg>
