<svg width="512" height="512" viewBox="0 0 512 512" fill="none" xmlns="http://www.w3.org/2000/svg">
<path d="M146.546 111.191C145.147 110.433 143.504 110.261 141.979 110.714C140.453 111.167 139.17 112.207 138.412 113.606C127.969 132.937 122.501 154.563 122.5 176.534C122.5 178.125 123.132 179.651 124.257 180.777C125.383 181.902 126.909 182.534 128.5 182.534C130.091 182.534 131.617 181.902 132.743 180.777C133.868 179.651 134.5 178.125 134.5 176.534C134.499 156.56 139.467 136.9 148.957 119.325C149.716 117.927 149.888 116.284 149.436 114.759C148.984 113.233 147.944 111.95 146.546 111.191Z" fill="#F1D1AF"/>
<path d="M151.923 103.037C152.541 103.526 153.249 103.888 154.008 104.103C154.766 104.318 155.559 104.381 156.341 104.29C157.124 104.198 157.881 103.953 158.569 103.569C159.257 103.185 159.862 102.669 160.351 102.051C164.272 97.0936 168.573 92.4498 173.217 88.1621C173.806 87.6303 174.283 86.987 174.621 86.2696C174.959 85.5521 175.152 84.7747 175.188 83.9823C175.224 83.1899 175.102 82.3982 174.83 81.6531C174.558 80.908 174.141 80.2241 173.603 79.6412C173.065 79.0583 172.417 78.5878 171.696 78.2571C170.975 77.9263 170.196 77.7417 169.403 77.7141C168.61 77.6865 167.82 77.8163 167.078 78.0961C166.336 78.3759 165.656 78.8001 165.079 79.3441C159.975 84.0565 155.246 89.1604 150.937 94.6091C150.448 95.2272 150.086 95.9356 149.871 96.6936C149.656 97.4517 149.593 98.2447 149.684 99.0273C149.776 99.8099 150.021 100.567 150.405 101.255C150.789 101.943 151.305 102.548 151.923 103.037Z" fill="#F1D1AF"/>
<path d="M257.326 22.0059C294.371 22.3448 330.08 35.8891 358.031 60.2032C385.982 84.5173 404.342 118.006 409.809 154.647C410.016 156.072 410.729 157.374 411.817 158.317C412.905 159.26 414.296 159.78 415.736 159.783H415.749C416.606 159.786 417.454 159.604 418.235 159.25C419.017 158.896 419.712 158.379 420.276 157.733C420.84 157.086 421.258 156.327 421.502 155.505C421.746 154.683 421.811 153.818 421.692 152.969C415.822 113.482 396.052 77.3859 365.938 51.1777C335.824 24.9694 297.346 10.3697 257.426 10.0059C212.735 9.63193 170.455 26.9599 138.35 58.7999C106.2 90.6789 88.5 132.9 88.5 177.681C88.4223 206.057 95.577 233.985 109.289 258.828C123 283.671 142.817 304.611 166.867 319.67C183.934 330.428 194.536 349.948 194.536 370.613V407.138C194.538 410.701 195.633 414.177 197.673 417.098C199.714 420.019 202.601 422.244 205.945 423.472V489.237C205.948 492.62 207.292 495.863 209.684 498.256C212.075 500.648 215.317 501.995 218.7 502H293.048C296.422 501.992 299.655 500.65 302.044 498.268C304.433 495.886 305.783 492.656 305.8 489.282L306.033 423.482C309.381 422.258 312.273 420.035 314.317 417.114C316.361 414.193 317.458 410.715 317.46 407.15V370.15C317.479 359.982 320.078 349.985 325.013 341.095C329.948 332.206 337.058 324.713 345.677 319.319C365.684 306.676 382.774 289.924 395.814 270.173C408.854 250.423 417.547 228.126 421.314 204.761C421.475 203.97 421.476 203.154 421.314 202.363C421.153 201.572 420.834 200.821 420.375 200.156C419.917 199.491 419.329 198.926 418.647 198.493C417.965 198.061 417.203 197.771 416.406 197.64C415.609 197.51 414.794 197.541 414.01 197.733C413.225 197.925 412.488 198.273 411.841 198.757C411.194 199.241 410.652 199.85 410.247 200.548C409.841 201.247 409.581 202.02 409.481 202.821C405.983 224.518 397.911 245.223 385.802 263.564C373.692 281.904 357.822 297.46 339.243 309.2C328.916 315.674 320.4 324.662 314.493 335.323C308.585 345.984 305.479 357.97 305.464 370.158V407.142C305.46 408.579 304.887 409.955 303.871 410.971C302.855 411.987 301.479 412.56 300.042 412.564H262V396.7C274.332 390.3 287 382.606 287 367.511C287 352.416 274.332 344.718 262 338.322V294.6C274.332 288.2 287 280.507 287 265.414C287 250.321 274.332 242.624 262 236.228V192.51C274.332 186.11 287 178.417 287 163.324C287 161.733 286.368 160.207 285.243 159.081C284.117 157.956 282.591 157.324 281 157.324C279.409 157.324 277.883 157.956 276.757 159.081C275.632 160.207 275 161.733 275 163.324C275 169.776 270.234 174.099 262 178.839V139.73C262 138.139 261.368 136.613 260.243 135.487C259.117 134.362 257.591 133.73 256 133.73C254.409 133.73 252.883 134.362 251.757 135.487C250.632 136.613 250 138.139 250 139.73V185.182C237.668 191.582 225 199.274 225 214.367C225 229.46 237.668 237.158 250 243.554V287.272C237.668 293.672 225 301.365 225 316.458C225 331.551 237.668 339.251 250 345.647V389.371C239.42 394.858 228.6 401.308 225.738 412.56H211.958C210.521 412.556 209.145 411.983 208.129 410.967C207.113 409.951 206.54 408.575 206.536 407.138V370.613C206.536 345.489 194.098 322.65 173.266 309.513C150.935 295.531 132.536 276.09 119.804 253.024C107.073 229.958 100.429 204.027 100.5 177.681C100.5 136.122 116.943 96.9289 146.8 67.3189C176.3 38.0619 215.038 21.9999 256.014 21.9999C256.449 21.9999 256.891 21.9999 257.326 22.0059ZM262 249.9C270.234 254.641 275 258.965 275 265.416C275 271.867 270.234 276.192 262 280.932V249.9ZM262 351.993C270.234 356.734 275 361.059 275 367.512C275 373.965 270.234 378.289 262 383.03V351.993ZM237 214.367C237 207.916 241.766 203.592 250 198.852V229.884C241.766 225.144 237 220.819 237 214.367ZM237 316.458C237 310.007 241.766 305.682 250 300.942V331.976C241.766 327.235 237 322.911 237 316.458ZM250 403.041V412.56H238.65C240.7 409.088 244.6 406.152 250 403.041ZM217.945 424.56H294.033L293.979 440.012H217.945V424.56ZM217.945 452.012H293.936L293.888 465.546H217.945V452.012ZM217.945 477.546H293.845L293.804 489.239C293.804 489.44 293.725 489.632 293.583 489.775C293.442 489.917 293.25 489.998 293.049 490H218.7C218.499 489.999 218.306 489.918 218.164 489.775C218.022 489.632 217.943 489.438 217.944 489.237L217.945 477.546Z" fill="#F1D1AF"/>
</svg>
