<svg width="512" height="512" viewBox="0 0 512 512" fill="none" xmlns="http://www.w3.org/2000/svg">
<path d="M420.372 272.909C419.384 272.626 418.341 272.602 417.341 272.839C414.959 268.707 411.709 265.14 407.817 262.383C403.925 259.627 399.482 257.746 394.793 256.87V23C394.793 21.4087 394.161 19.8826 393.036 18.7574C391.91 17.6321 390.384 17 388.793 17C387.202 17 385.676 17.6321 384.55 18.7574C383.425 19.8826 382.793 21.4087 382.793 23V256.87C378.093 257.749 373.64 259.637 369.742 262.404C365.843 265.172 362.592 268.753 360.212 272.9C359.205 272.671 358.156 272.705 357.166 273C334.975 279.684 315.316 292.904 300.755 310.935C289.887 324.414 282.24 340.197 278.4 357.08C278.229 357.848 278.212 358.643 278.348 359.418C278.484 360.193 278.772 360.933 279.194 361.597C279.617 362.261 280.166 362.835 280.81 363.287C281.455 363.739 282.182 364.059 282.95 364.23C283.718 364.401 284.513 364.418 285.288 364.282C286.063 364.146 286.803 363.858 287.467 363.436C288.131 363.013 288.706 362.464 289.157 361.82C289.609 361.175 289.929 360.448 290.1 359.68C293.545 344.605 300.383 330.515 310.093 318.48C322.101 303.62 337.994 292.381 356.007 286.012C355.901 287.082 355.845 288.166 355.845 289.263C355.841 293.69 356.733 298.072 358.469 302.144C339.838 309.233 324.281 322.626 314.502 339.996C304.723 357.367 301.34 377.615 304.943 397.22C308.545 416.826 318.904 434.549 334.219 447.308C349.535 460.067 368.837 467.056 388.771 467.058C408.705 467.061 428.009 460.077 443.327 447.322C458.646 434.567 469.01 416.847 472.617 397.242C476.225 377.638 472.848 357.389 463.073 340.016C453.299 322.643 437.745 309.245 419.116 302.152C420.854 298.077 421.748 293.693 421.744 289.263C421.744 288.127 421.685 286.993 421.569 285.863C439.713 291.993 455.729 303.178 467.734 318.1C477.227 329.875 483.963 343.626 487.448 358.343C490.933 373.061 491.078 388.373 487.873 403.154C484.668 417.935 478.194 431.811 468.926 443.764C459.659 455.717 447.832 465.443 434.315 472.229C420.798 479.014 405.933 482.688 390.811 482.978C375.689 483.269 360.694 480.171 346.926 473.91C333.158 467.649 320.966 458.385 311.245 446.798C301.525 435.21 294.522 421.593 290.751 406.946C290.426 405.649 289.679 404.497 288.627 403.672C287.574 402.848 286.277 402.397 284.94 402.392H284.923C284.012 402.391 283.112 402.598 282.293 402.997C281.473 403.396 280.756 403.977 280.195 404.695C279.634 405.414 279.244 406.251 279.056 407.142C278.867 408.034 278.885 408.957 279.107 409.841C284.022 429.081 293.905 446.691 307.767 460.909C321.629 475.127 338.984 485.454 358.092 490.854C377.201 496.255 397.394 496.54 416.647 491.681C435.901 486.823 453.54 476.99 467.798 463.17C482.056 449.349 492.433 432.024 497.889 412.931C503.345 393.838 503.689 373.647 498.886 354.379C494.083 335.111 484.302 317.444 470.523 303.145C456.743 288.847 439.449 278.42 420.372 272.909ZM388.793 268.309C392.936 268.309 396.986 269.538 400.43 271.84C403.874 274.142 406.559 277.414 408.144 281.241C409.729 285.069 410.144 289.281 409.335 293.344C408.527 297.407 406.532 301.139 403.602 304.068C400.673 306.998 396.94 308.993 392.877 309.801C388.814 310.609 384.602 310.194 380.775 308.608C376.947 307.023 373.676 304.338 371.374 300.893C369.072 297.449 367.844 293.399 367.844 289.256C367.851 283.703 370.061 278.379 373.988 274.453C377.916 270.526 383.24 268.318 388.793 268.312V268.309ZM462.024 381.809C462.023 395.279 458.307 408.489 451.285 419.984C444.262 431.478 434.205 440.814 422.22 446.962C410.235 453.111 396.786 455.835 383.353 454.834C369.919 453.833 357.023 449.147 346.081 441.29C335.139 433.433 326.576 422.711 321.334 410.302C316.092 397.894 314.375 384.28 316.37 370.958C318.365 357.636 323.996 345.123 332.644 334.795C341.291 324.466 352.619 316.723 365.383 312.417C368.442 315.517 372.087 317.979 376.106 319.659C380.124 321.339 384.436 322.204 388.792 322.204C393.147 322.204 397.459 321.339 401.478 319.659C405.496 317.979 409.141 315.517 412.2 312.417C426.711 317.331 439.32 326.666 448.256 339.111C457.192 351.556 462.006 366.488 462.024 381.809Z" fill="#F1D1AF"/>
<path d="M157.254 218.113L159.038 216.329C159.955 215.412 160.683 214.324 161.179 213.126C161.676 211.927 161.931 210.643 161.931 209.346C161.931 208.05 161.676 206.766 161.179 205.567C160.683 204.369 159.955 203.281 159.038 202.364L135.16 178.487C134.852 178.184 134.524 177.901 134.179 177.64V23C134.179 21.4087 133.547 19.8826 132.422 18.7574C131.296 17.6321 129.77 17 128.179 17C126.588 17 125.062 17.6321 123.936 18.7574C122.811 19.8826 122.179 21.4087 122.179 23V177.641C121.833 177.902 121.505 178.185 121.197 178.489L97.319 202.364C95.4706 204.218 94.4327 206.729 94.4327 209.346C94.4327 211.964 95.4706 214.475 97.319 216.329L99.104 218.113L13.086 304.12C12.1078 305.098 11.3318 306.259 10.8023 307.536C10.2729 308.814 10.0004 310.183 10.0004 311.566C10.0004 312.95 10.2729 314.319 10.8023 315.597C11.3318 316.874 12.1078 318.035 13.086 319.013L120.734 426.647C122.709 428.621 125.387 429.73 128.179 429.73C130.971 429.73 133.649 428.621 135.624 426.647L243.274 319.011C245.249 317.036 246.358 314.358 246.358 311.565C246.358 308.773 245.249 306.095 243.274 304.12L157.254 218.113ZM128.179 188.477L149.05 209.346L128.179 230.215L107.308 209.346L128.179 188.477ZM130.8 242.73L199.645 311.566L128.18 383.023L56.714 311.566L125.559 242.731C127.273 243.21 129.086 243.21 130.8 242.731V242.73ZM128.18 417.123L22.61 311.567L107.589 226.6L116.156 235.165L46.517 304.794C44.7227 306.592 43.715 309.028 43.715 311.568C43.715 314.107 44.7227 316.543 46.517 318.341L121.406 393.22C123.203 395.016 125.639 396.024 128.179 396.024C130.719 396.024 133.155 395.016 134.952 393.22L209.842 318.339C211.636 316.541 212.643 314.105 212.643 311.565C212.643 309.026 211.636 306.59 209.842 304.792L140.202 235.162L148.769 226.596L233.749 311.565L128.18 417.123Z" fill="#F1D1AF"/>
<path d="M279.815 17C278.224 17 276.698 17.6321 275.572 18.7574C274.447 19.8826 273.815 21.4087 273.815 23V56.3C267.4 57.5526 261.536 60.7753 257.039 65.519C244.738 70.1694 234.14 78.448 226.65 89.2577C219.16 100.067 215.132 112.898 215.099 126.049V222.128C215.166 239.248 222.014 255.643 234.143 267.725C246.273 279.806 262.695 286.59 279.815 286.59C296.934 286.59 313.356 279.806 325.486 267.725C337.615 255.643 344.463 239.248 344.53 222.128V126.052C344.514 112.887 340.489 100.039 332.99 89.2187C325.491 78.3982 314.874 70.1186 302.552 65.482C298.061 60.7593 292.211 57.5504 285.815 56.3V23C285.815 21.4087 285.183 19.8826 284.058 18.7574C282.932 17.6321 281.406 17 279.815 17ZM311.05 83.615C317.702 88.5135 323.111 94.9055 326.842 102.276C330.573 109.647 332.521 117.791 332.53 126.052V222.131C332.469 236.072 326.889 249.422 317.009 259.258C307.13 269.095 293.756 274.617 279.815 274.617C265.873 274.617 252.499 269.095 242.62 259.258C232.74 249.422 227.16 236.072 227.099 222.131V126.052C227.116 117.801 229.067 109.669 232.797 102.308C236.526 94.9482 241.929 88.5648 248.572 83.671C248.441 84.8294 248.374 85.9942 248.372 87.16C248.367 91.9485 249.464 96.6739 251.577 100.971C241.721 109.071 236.545 119.419 236.545 131.186V219.036C236.545 230.343 241.037 241.187 249.032 249.183C257.028 257.178 267.872 261.67 279.179 261.67C290.486 261.67 301.33 257.178 309.326 249.183C317.321 241.187 321.813 230.343 321.813 219.036V131.186C321.875 125.362 320.717 119.59 318.415 114.24C316.113 108.89 312.717 104.081 308.445 100.122C310.298 96.0521 311.255 91.6318 311.253 87.16C311.252 85.9755 311.184 84.7919 311.05 83.615ZM309.815 131.186V219.036C309.815 227.161 306.587 234.953 300.842 240.698C295.098 246.442 287.306 249.67 279.181 249.67C271.056 249.67 263.264 246.442 257.52 240.698C251.775 234.953 248.547 227.161 248.547 219.036V131.186C248.547 123.215 252.013 116.295 258.836 110.551C264.7 115.827 272.338 118.699 280.225 118.595C288.113 118.491 295.672 115.419 301.395 109.99C306.881 115.672 309.906 123.288 309.815 131.186ZM299.255 87.16C299.256 91.0052 298.116 94.7643 295.98 97.9618C293.844 101.159 290.808 103.652 287.256 105.123C283.703 106.595 279.794 106.981 276.023 106.231C272.251 105.481 268.787 103.629 266.068 100.911C263.349 98.1917 261.497 94.7276 260.747 90.9562C259.996 87.1849 260.381 83.2758 261.853 79.7233C263.324 76.1707 265.816 73.1343 269.014 70.9981C272.211 68.8619 275.97 67.7218 279.815 67.722C284.969 67.7276 289.91 69.7772 293.554 73.4213C297.199 77.0653 299.249 82.0062 299.255 87.16Z" fill="#F1D1AF"/>
<path d="M260.374 164.325C258.783 164.325 257.257 164.957 256.131 166.082C255.006 167.208 254.374 168.734 254.374 170.325V212.212C254.374 213.803 255.006 215.329 256.131 216.455C257.257 217.58 258.783 218.212 260.374 218.212C261.965 218.212 263.491 217.58 264.617 216.455C265.742 215.329 266.374 213.803 266.374 212.212V170.325C266.374 168.734 265.742 167.208 264.617 166.082C263.491 164.957 261.965 164.325 260.374 164.325Z" fill="#F1D1AF"/>
<path d="M260.374 137.051C258.783 137.051 257.257 137.683 256.131 138.808C255.006 139.934 254.374 141.46 254.374 143.051V149.586C254.374 151.177 255.006 152.703 256.131 153.829C257.257 154.954 258.783 155.586 260.374 155.586C261.965 155.586 263.491 154.954 264.617 153.829C265.742 152.703 266.374 151.177 266.374 149.586V143.051C266.374 141.46 265.742 139.934 264.617 138.808C263.491 137.683 261.965 137.051 260.374 137.051Z" fill="#F1D1AF"/>
</svg>
