<svg width="512" height="512" viewBox="0 0 512 512" fill="none" xmlns="http://www.w3.org/2000/svg">
<path d="M256 9.99996C207.346 10.0001 159.784 24.4278 119.33 51.4586C78.8755 78.4894 47.3452 116.909 28.7261 161.86C10.107 206.81 5.23535 256.273 14.7273 303.992C24.2192 351.711 47.6483 395.544 82.0519 429.948C128.186 476.082 190.758 502 256.002 502C321.246 502 383.818 476.082 429.952 429.948C476.086 383.814 502.004 321.242 502.004 255.998C502.004 190.754 476.086 128.182 429.952 82.048C407.161 59.1332 380.052 40.9665 350.193 28.5994C320.334 16.2323 288.319 9.91052 256 9.99996ZM421.463 421.463C377.579 465.346 318.061 490 256 490C193.939 490 134.42 465.346 90.5369 421.463C46.6534 377.579 21.9999 318.061 21.9999 256C21.9999 193.939 46.6534 134.42 90.5369 90.537C134.42 46.6535 193.939 21.9999 256 21.9999C318.061 21.9999 377.579 46.6535 421.463 90.537C465.346 134.42 490 193.939 490 256C490 318.061 465.346 377.579 421.463 421.463Z" fill="#F1D1AF"/>
<path d="M174.608 380.2H227.5C229.091 380.2 230.617 379.568 231.743 378.443C232.868 377.318 233.5 375.791 233.5 374.2C233.5 372.609 232.868 371.083 231.743 369.958C230.617 368.832 229.091 368.2 227.5 368.2H174.608C173.017 368.2 171.491 368.832 170.365 369.958C169.24 371.083 168.608 372.609 168.608 374.2C168.608 375.791 169.24 377.318 170.365 378.443C171.491 379.568 173.017 380.2 174.608 380.2Z" fill="#F1D1AF"/>
<path d="M138.335 380.2H148.87C150.461 380.2 151.987 379.568 153.113 378.443C154.238 377.318 154.87 375.791 154.87 374.2C154.87 372.609 154.238 371.083 153.113 369.958C151.987 368.832 150.461 368.2 148.87 368.2H138.335C136.744 368.2 135.218 368.832 134.092 369.958C132.967 371.083 132.335 372.609 132.335 374.2C132.335 375.791 132.967 377.318 134.092 378.443C135.218 379.568 136.744 380.2 138.335 380.2Z" fill="#F1D1AF"/>
<path d="M256.841 51.8542C150.6 51.4242 62.882 132.575 52.829 236.121C52.752 236.952 52.8494 237.79 53.1148 238.58C53.3803 239.371 53.808 240.098 54.3706 240.714C54.9331 241.33 55.6182 241.822 56.3818 242.158C57.1454 242.494 57.9708 242.667 58.805 242.665H58.811C60.302 242.663 61.7386 242.105 62.8409 241.102C63.9433 240.098 64.6324 238.719 64.774 237.235C74.274 139.722 156.95 63.3252 257.035 63.8552C362.157 64.4122 447.847 150.319 448.147 255.442C448.214 274.382 445.471 293.227 440.008 311.361H361.458C370.792 301.435 376.016 288.338 376.075 274.712C376.075 265.068 373.685 254.281 369.835 246.558C369.058 244.99 367.857 243.672 366.368 242.753C364.879 241.834 363.162 241.35 361.412 241.358H291.751C290.491 230.041 287.385 218.693 283.118 210.132C282.19 208.259 280.755 206.684 278.976 205.586C277.197 204.487 275.146 203.91 273.055 203.92H151.655C149.727 203.919 147.831 204.413 146.15 205.357C144.469 206.3 143.059 207.66 142.055 209.306C134.133 222.125 129.943 236.899 129.955 251.968C129.98 263.098 132.275 274.105 136.7 284.318C141.124 294.53 147.586 303.733 155.688 311.363H71.987C69.4545 302.965 67.5048 294.403 66.152 285.736C65.8557 284.216 64.9827 282.868 63.7157 281.977C62.4487 281.085 60.886 280.718 59.3546 280.953C57.8232 281.187 56.4418 282.005 55.4997 283.235C54.5576 284.465 54.1277 286.012 54.3 287.551C69.513 385.19 154.163 460.151 256 460.151C368.762 460.151 460.465 368.251 460.147 255.42C459.833 143.626 368.631 52.3072 256.841 51.8542ZM283.9 253.354H359.77C362.552 260.134 364.013 267.382 364.075 274.71C364.075 289.627 355.801 303.532 342.409 311.359H298.744C292.508 307.479 287.356 302.083 283.768 295.675C280.179 289.267 278.271 282.055 278.22 274.71C278.213 267.218 280.172 259.855 283.9 253.356V253.354ZM280.323 311.359H266.781C269.525 308.933 272.094 306.314 274.467 303.524C276.187 306.302 278.147 308.924 280.323 311.361V311.359ZM152.077 215.918H272.592C274.305 219.534 275.704 223.291 276.773 227.146H146.556C148.051 223.243 149.899 219.485 152.077 215.918ZM141.959 251.966C141.961 247.665 142.363 243.373 143.159 239.146H279.359C279.49 240.019 279.606 240.894 279.713 241.769C277.501 242.433 275.61 243.887 274.4 245.854C270.244 252.567 267.591 260.1 266.626 267.936C265.661 275.772 266.405 283.724 268.808 291.244C262.869 299.582 255.112 306.46 246.125 311.361H175.365C165.189 305.137 156.776 296.411 150.928 286.014C145.08 275.617 141.993 263.895 141.959 251.966ZM256 448.147C223.644 448.133 191.815 439.949 163.464 424.354C135.114 408.758 111.162 386.257 93.827 358.935H418.185C400.848 386.257 376.893 408.759 348.541 424.355C320.189 439.95 288.358 448.134 256 448.147ZM425.232 346.935H86.775C82.6688 339.329 79.0829 331.453 76.042 323.361H435.949C432.913 331.452 429.333 339.328 425.232 346.935Z" fill="#F1D1AF"/>
</svg>
