<svg width="1920" height="1503" viewBox="0 0 1920 1503" fill="none" xmlns="http://www.w3.org/2000/svg">
<rect width="1920" height="1503" fill="#0D0D0D"/>
<mask id="path-1-outside-1_20_98" maskUnits="userSpaceOnUse" x="1648" y="29.0461" width="227" height="1445" fill="black">
<rect fill="white" x="1648" y="29.0461" width="227" height="1445"/>
<path d="M1649 121.6C1649 105.6 1651.8 91.15 1657.4 78.25C1663.1 65.45 1671.2 54.9001 1681.7 46.6001C1692.3 38.4001 1704.9 33.2 1719.5 31L1725.8 73.6001C1713.4 76.6001 1703.85 82.8 1697.15 92.2001C1690.45 101.6 1687.1 112.3 1687.1 124.3C1687.1 131 1688.15 137.5 1690.25 143.8C1692.35 150.1 1695.45 155.25 1699.55 159.25C1703.65 163.35 1708.7 165.4 1714.7 165.4C1716.9 165.4 1719 165.05 1721 164.35C1723.1 163.75 1725.05 162.7 1726.85 161.2C1728.65 159.7 1730.35 157.55 1731.95 154.75C1733.55 152.05 1735 148.6 1736.3 144.4L1752.8 88.3C1754 84.1001 1755.7 79.2001 1757.9 73.6001C1760.1 68.1001 1763.25 62.75 1767.35 57.55C1771.45 52.3501 1776.85 48 1783.55 44.5C1790.35 41.1 1798.9 39.4 1809.2 39.4C1823.7 39.4 1835.75 43.0499 1845.35 50.35C1854.95 57.65 1862.1 67.4 1866.8 79.6C1871.5 91.7999 1873.8 105.3 1873.7 120.1C1873.5 135 1870.95 148.3 1866.05 160C1861.15 171.7 1854 181.5 1844.6 189.4C1835.3 197.3 1823.9 203 1810.4 206.5L1802.9 162.4C1809.9 160.8 1815.8 157.85 1820.6 153.55C1825.4 149.25 1829.05 144.1 1831.55 138.1C1834.05 132.2 1835.4 126 1835.6 119.5C1835.8 113.1 1834.9 107.05 1832.9 101.35C1831 95.75 1828.2 91.15 1824.5 87.55C1820.8 84.05 1816.4 82.3 1811.3 82.3C1806.6 82.3 1802.75 83.75 1799.75 86.65C1796.85 89.55 1794.5 93.2001 1792.7 97.6001C1790.9 102 1789.4 106.5 1788.2 111.1L1778 148.6C1776.5 154.2 1774.5 160.4 1772 167.2C1769.6 174 1766.2 180.5 1761.8 186.7C1757.5 193 1751.8 198.15 1744.7 202.15C1737.6 206.25 1728.6 208.3 1717.7 208.3C1706.1 208.3 1695.95 205.85 1687.25 200.95C1678.65 196.15 1671.5 189.65 1665.8 181.45C1660.2 173.25 1656 163.95 1653.2 153.55C1650.4 143.25 1649 132.6 1649 121.6ZM1653.5 241.27H1869.5L1869.5 382.27H1831.4L1831.4 282.07H1785.2L1785.2 364.27H1747.1V282.07H1691.6L1691.6 382.27H1653.5V241.27ZM1653.5 418.223H1869.5L1869.5 509.423C1869.5 511.523 1869.4 514.323 1869.2 517.823C1869.1 521.423 1868.8 524.623 1868.3 527.423C1866.3 540.323 1862.05 550.873 1855.55 559.073C1849.05 567.373 1840.85 573.473 1830.95 577.373C1821.15 581.273 1810.2 583.223 1798.1 583.223C1780 583.223 1764.5 578.723 1751.6 569.723C1738.8 560.723 1730.9 546.623 1727.9 527.423L1726.7 509.423V459.023H1653.5V418.223ZM1653.5 540.023L1741.4 497.423L1749.5 539.423L1653.5 586.223L1653.5 540.023ZM1764.8 459.023V507.623C1764.8 509.723 1764.9 512.023 1765.1 514.523C1765.3 517.023 1765.7 519.323 1766.3 521.423C1767.8 526.923 1770.3 531.173 1773.8 534.173C1777.4 537.173 1781.35 539.223 1785.65 540.323C1790.05 541.523 1794.2 542.123 1798.1 542.123C1802 542.123 1806.1 541.523 1810.4 540.323C1814.8 539.223 1818.75 537.173 1822.25 534.173C1825.85 531.173 1828.4 526.923 1829.9 521.423C1830.5 519.323 1830.9 517.023 1831.1 514.523C1831.3 512.023 1831.4 509.723 1831.4 507.623V459.023H1764.8ZM1653.5 665.699L1869.5 599.699L1869.5 641.699L1691.9 695.699L1869.5 750.599L1869.5 792.599L1653.5 726.599V665.699ZM1653.5 818.195H1869.5L1869.5 858.995H1653.5V818.195ZM1649 996.665C1649 975.065 1653.7 956.415 1663.1 940.715C1672.5 925.115 1685.65 913.065 1702.55 904.565C1719.45 896.165 1739.1 891.965 1761.5 891.965C1783.9 891.965 1803.55 896.165 1820.45 904.565C1837.35 913.065 1850.5 925.115 1859.9 940.715C1869.3 956.415 1874 975.065 1874 996.665C1874 1021.46 1867.85 1042.26 1855.55 1059.06C1843.25 1075.96 1826.6 1087.86 1805.6 1094.76L1794.2 1053.66C1807.3 1049.66 1817.45 1042.91 1824.65 1033.41C1831.95 1023.91 1835.6 1011.66 1835.6 996.665C1835.6 982.965 1832.55 971.515 1826.45 962.315C1820.35 953.215 1811.75 946.365 1800.65 941.765C1789.55 937.165 1776.5 934.865 1761.5 934.865C1746.5 934.865 1733.45 937.165 1722.35 941.765C1711.25 946.365 1702.65 953.215 1696.55 962.315C1690.45 971.515 1687.4 982.965 1687.4 996.665C1687.4 1011.66 1691.05 1023.91 1698.35 1033.41C1705.65 1042.91 1715.8 1049.66 1728.8 1053.66L1717.4 1094.76C1696.4 1087.86 1679.75 1075.96 1667.45 1059.06C1655.15 1042.26 1649 1021.46 1649 996.665ZM1653.5 1127.79H1869.5L1869.5 1268.79H1831.4L1831.4 1168.59H1785.2L1785.2 1250.79H1747.1V1168.59H1691.6V1268.79H1653.5V1127.79ZM1649 1386.35C1649 1370.35 1651.8 1355.9 1657.4 1343C1663.1 1330.2 1671.2 1319.65 1681.7 1311.35C1692.3 1303.15 1704.9 1297.95 1719.5 1295.75L1725.8 1338.35C1713.4 1341.35 1703.85 1347.55 1697.15 1356.95C1690.45 1366.35 1687.1 1377.05 1687.1 1389.05C1687.1 1395.75 1688.15 1402.25 1690.25 1408.55C1692.35 1414.85 1695.45 1420 1699.55 1424C1703.65 1428.1 1708.7 1430.15 1714.7 1430.15C1716.9 1430.15 1719 1429.8 1721 1429.1C1723.1 1428.5 1725.05 1427.45 1726.85 1425.95C1728.65 1424.45 1730.35 1422.3 1731.95 1419.5C1733.55 1416.8 1735 1413.35 1736.3 1409.15L1752.8 1353.05C1754 1348.85 1755.7 1343.95 1757.9 1338.35C1760.1 1332.85 1763.25 1327.5 1767.35 1322.3C1771.45 1317.1 1776.85 1312.75 1783.55 1309.25C1790.35 1305.85 1798.9 1304.15 1809.2 1304.15C1823.7 1304.15 1835.75 1307.8 1845.35 1315.1C1854.95 1322.4 1862.1 1332.15 1866.8 1344.35C1871.5 1356.55 1873.8 1370.05 1873.7 1384.85C1873.5 1399.75 1870.95 1413.05 1866.05 1424.75C1861.15 1436.45 1854 1446.25 1844.6 1454.15C1835.3 1462.05 1823.9 1467.75 1810.4 1471.25L1802.9 1427.15C1809.9 1425.55 1815.8 1422.6 1820.6 1418.3C1825.4 1414 1829.05 1408.85 1831.55 1402.85C1834.05 1396.95 1835.4 1390.75 1835.6 1384.25C1835.8 1377.85 1834.9 1371.8 1832.9 1366.1C1831 1360.5 1828.2 1355.9 1824.5 1352.3C1820.8 1348.8 1816.4 1347.05 1811.3 1347.05C1806.6 1347.05 1802.75 1348.5 1799.75 1351.4C1796.85 1354.3 1794.5 1357.95 1792.7 1362.35C1790.9 1366.75 1789.4 1371.25 1788.2 1375.85L1778 1413.35C1776.5 1418.95 1774.5 1425.15 1772 1431.95C1769.6 1438.75 1766.2 1445.25 1761.8 1451.45C1757.5 1457.75 1751.8 1462.9 1744.7 1466.9C1737.6 1471 1728.6 1473.05 1717.7 1473.05C1706.1 1473.05 1695.95 1470.6 1687.25 1465.7C1678.65 1460.9 1671.5 1454.4 1665.8 1446.2C1660.2 1438 1656 1428.7 1653.2 1418.3C1650.4 1408 1649 1397.35 1649 1386.35Z"/>
</mask>
<path d="M1649 121.6C1649 105.6 1651.8 91.15 1657.4 78.25C1663.1 65.45 1671.2 54.9001 1681.7 46.6001C1692.3 38.4001 1704.9 33.2 1719.5 31L1725.8 73.6001C1713.4 76.6001 1703.85 82.8 1697.15 92.2001C1690.45 101.6 1687.1 112.3 1687.1 124.3C1687.1 131 1688.15 137.5 1690.25 143.8C1692.35 150.1 1695.45 155.25 1699.55 159.25C1703.65 163.35 1708.7 165.4 1714.7 165.4C1716.9 165.4 1719 165.05 1721 164.35C1723.1 163.75 1725.05 162.7 1726.85 161.2C1728.65 159.7 1730.35 157.55 1731.95 154.75C1733.55 152.05 1735 148.6 1736.3 144.4L1752.8 88.3C1754 84.1001 1755.7 79.2001 1757.9 73.6001C1760.1 68.1001 1763.25 62.75 1767.35 57.55C1771.45 52.3501 1776.85 48 1783.55 44.5C1790.35 41.1 1798.9 39.4 1809.2 39.4C1823.7 39.4 1835.75 43.0499 1845.35 50.35C1854.95 57.65 1862.1 67.4 1866.8 79.6C1871.5 91.7999 1873.8 105.3 1873.7 120.1C1873.5 135 1870.95 148.3 1866.05 160C1861.15 171.7 1854 181.5 1844.6 189.4C1835.3 197.3 1823.9 203 1810.4 206.5L1802.9 162.4C1809.9 160.8 1815.8 157.85 1820.6 153.55C1825.4 149.25 1829.05 144.1 1831.55 138.1C1834.05 132.2 1835.4 126 1835.6 119.5C1835.8 113.1 1834.9 107.05 1832.9 101.35C1831 95.75 1828.2 91.15 1824.5 87.55C1820.8 84.05 1816.4 82.3 1811.3 82.3C1806.6 82.3 1802.75 83.75 1799.75 86.65C1796.85 89.55 1794.5 93.2001 1792.7 97.6001C1790.9 102 1789.4 106.5 1788.2 111.1L1778 148.6C1776.5 154.2 1774.5 160.4 1772 167.2C1769.6 174 1766.2 180.5 1761.8 186.7C1757.5 193 1751.8 198.15 1744.7 202.15C1737.6 206.25 1728.6 208.3 1717.7 208.3C1706.1 208.3 1695.95 205.85 1687.25 200.95C1678.65 196.15 1671.5 189.65 1665.8 181.45C1660.2 173.25 1656 163.95 1653.2 153.55C1650.4 143.25 1649 132.6 1649 121.6ZM1653.5 241.27H1869.5L1869.5 382.27H1831.4L1831.4 282.07H1785.2L1785.2 364.27H1747.1V282.07H1691.6L1691.6 382.27H1653.5V241.27ZM1653.5 418.223H1869.5L1869.5 509.423C1869.5 511.523 1869.4 514.323 1869.2 517.823C1869.1 521.423 1868.8 524.623 1868.3 527.423C1866.3 540.323 1862.05 550.873 1855.55 559.073C1849.05 567.373 1840.85 573.473 1830.95 577.373C1821.15 581.273 1810.2 583.223 1798.1 583.223C1780 583.223 1764.5 578.723 1751.6 569.723C1738.8 560.723 1730.9 546.623 1727.9 527.423L1726.7 509.423V459.023H1653.5V418.223ZM1653.5 540.023L1741.4 497.423L1749.5 539.423L1653.5 586.223L1653.5 540.023ZM1764.8 459.023V507.623C1764.8 509.723 1764.9 512.023 1765.1 514.523C1765.3 517.023 1765.7 519.323 1766.3 521.423C1767.8 526.923 1770.3 531.173 1773.8 534.173C1777.4 537.173 1781.35 539.223 1785.65 540.323C1790.05 541.523 1794.2 542.123 1798.1 542.123C1802 542.123 1806.1 541.523 1810.4 540.323C1814.8 539.223 1818.75 537.173 1822.25 534.173C1825.85 531.173 1828.4 526.923 1829.9 521.423C1830.5 519.323 1830.9 517.023 1831.1 514.523C1831.3 512.023 1831.4 509.723 1831.4 507.623V459.023H1764.8ZM1653.5 665.699L1869.5 599.699L1869.5 641.699L1691.9 695.699L1869.5 750.599L1869.5 792.599L1653.5 726.599V665.699ZM1653.5 818.195H1869.5L1869.5 858.995H1653.5V818.195ZM1649 996.665C1649 975.065 1653.7 956.415 1663.1 940.715C1672.5 925.115 1685.65 913.065 1702.55 904.565C1719.45 896.165 1739.1 891.965 1761.5 891.965C1783.9 891.965 1803.55 896.165 1820.45 904.565C1837.35 913.065 1850.5 925.115 1859.9 940.715C1869.3 956.415 1874 975.065 1874 996.665C1874 1021.46 1867.85 1042.26 1855.55 1059.06C1843.25 1075.96 1826.6 1087.86 1805.6 1094.76L1794.2 1053.66C1807.3 1049.66 1817.45 1042.91 1824.65 1033.41C1831.95 1023.91 1835.6 1011.66 1835.6 996.665C1835.6 982.965 1832.55 971.515 1826.45 962.315C1820.35 953.215 1811.75 946.365 1800.65 941.765C1789.55 937.165 1776.5 934.865 1761.5 934.865C1746.5 934.865 1733.45 937.165 1722.35 941.765C1711.25 946.365 1702.65 953.215 1696.55 962.315C1690.45 971.515 1687.4 982.965 1687.4 996.665C1687.4 1011.66 1691.05 1023.91 1698.35 1033.41C1705.65 1042.91 1715.8 1049.66 1728.8 1053.66L1717.4 1094.76C1696.4 1087.86 1679.75 1075.96 1667.45 1059.06C1655.15 1042.26 1649 1021.46 1649 996.665ZM1653.5 1127.79H1869.5L1869.5 1268.79H1831.4L1831.4 1168.59H1785.2L1785.2 1250.79H1747.1V1168.59H1691.6V1268.79H1653.5V1127.79ZM1649 1386.35C1649 1370.35 1651.8 1355.9 1657.4 1343C1663.1 1330.2 1671.2 1319.65 1681.7 1311.35C1692.3 1303.15 1704.9 1297.95 1719.5 1295.75L1725.8 1338.35C1713.4 1341.35 1703.85 1347.55 1697.15 1356.95C1690.45 1366.35 1687.1 1377.05 1687.1 1389.05C1687.1 1395.75 1688.15 1402.25 1690.25 1408.55C1692.35 1414.85 1695.45 1420 1699.55 1424C1703.65 1428.1 1708.7 1430.15 1714.7 1430.15C1716.9 1430.15 1719 1429.8 1721 1429.1C1723.1 1428.5 1725.05 1427.45 1726.85 1425.95C1728.65 1424.45 1730.35 1422.3 1731.95 1419.5C1733.55 1416.8 1735 1413.35 1736.3 1409.15L1752.8 1353.05C1754 1348.85 1755.7 1343.95 1757.9 1338.35C1760.1 1332.85 1763.25 1327.5 1767.35 1322.3C1771.45 1317.1 1776.85 1312.75 1783.55 1309.25C1790.35 1305.85 1798.9 1304.15 1809.2 1304.15C1823.7 1304.15 1835.75 1307.8 1845.35 1315.1C1854.95 1322.4 1862.1 1332.15 1866.8 1344.35C1871.5 1356.55 1873.8 1370.05 1873.7 1384.85C1873.5 1399.75 1870.95 1413.05 1866.05 1424.75C1861.15 1436.45 1854 1446.25 1844.6 1454.15C1835.3 1462.05 1823.9 1467.75 1810.4 1471.25L1802.9 1427.15C1809.9 1425.55 1815.8 1422.6 1820.6 1418.3C1825.4 1414 1829.05 1408.85 1831.55 1402.85C1834.05 1396.95 1835.4 1390.75 1835.6 1384.25C1835.8 1377.85 1834.9 1371.8 1832.9 1366.1C1831 1360.5 1828.2 1355.9 1824.5 1352.3C1820.8 1348.8 1816.4 1347.05 1811.3 1347.05C1806.6 1347.05 1802.75 1348.5 1799.75 1351.4C1796.85 1354.3 1794.5 1357.95 1792.7 1362.35C1790.9 1366.75 1789.4 1371.25 1788.2 1375.85L1778 1413.35C1776.5 1418.95 1774.5 1425.15 1772 1431.95C1769.6 1438.75 1766.2 1445.25 1761.8 1451.45C1757.5 1457.75 1751.8 1462.9 1744.7 1466.9C1737.6 1471 1728.6 1473.05 1717.7 1473.05C1706.1 1473.05 1695.95 1470.6 1687.25 1465.7C1678.65 1460.9 1671.5 1454.4 1665.8 1446.2C1660.2 1438 1656 1428.7 1653.2 1418.3C1650.4 1408 1649 1397.35 1649 1386.35Z" stroke="white" stroke-opacity="0.1" stroke-width="2" mask="url(#path-1-outside-1_20_98)"/>
</svg>
