<svg width="512" height="512" viewBox="0 0 512 512" fill="none" xmlns="http://www.w3.org/2000/svg">
<path d="M343.8 231.2C340.7 230.5 337.5 232.4 336.6 235.6C333.3 248.2 329.2 259.6 324.3 269.5C322.8 272.5 324.1 276.1 327 277.5C327.8 277.9 328.8 278.1 329.6 278.1C331.8 278.1 334 276.9 335 274.7C340.2 264.1 344.6 251.9 348.1 238.5C348.9 235.3 347 232 343.8 231.2Z" fill="#F1D1AF"/>
<path d="M352.8 218.3C353.2 216.5 353.5 214.7 353.8 213C354.4 209.7 352.2 206.6 348.9 206.1C345.6 205.5 342.5 207.7 342 211C341.7 212.7 341.4 214.4 341 216.1C340.3 219.2 342.4 222.4 345.7 223C346.1 223.1 346.5 223.1 346.9 223.1C349.7 223.1 352.2 221.1 352.8 218.3Z" fill="#F1D1AF"/>
<path d="M377.5 171.5C377.2 168.4 374.6 166 371.5 166C368 166 365.3 169 365.5 172.4C366.7 190.3 365.7 208.8 362.3 227.8C353.7 276.2 332.6 313.8 326.6 323.8H212.4C212.8 317.2 211.7 312.2 205.6 299C199.8 286.7 198.3 272.1 201 255.1C210.6 258.9 228.2 264.9 246 264.9C257.2 264.9 268.4 262.6 277.8 255.9C295.6 243.3 302.5 218.5 298.3 182C294.1 145.6 299.2 120.9 312.9 110.4C325.8 100.8 343.1 105.1 349.1 107C351.6 112.6 353.9 118.2 355.8 124C356.6 126.4 358.9 128 361.5 128C365.6 128 368.5 123.9 367.2 120C355.7 86.4 335.2 55.9 306 29.4C292.3 16.9 274.5 10 256 10C237.5 10 219.7 16.9 206 29.4C173.4 59.1 151.6 93.6 141.2 132C132.9 162.7 131.8 195.8 138 230.4C145.8 273.8 162.7 308.1 171.6 323.8C164.5 324.1 158.7 330 158.7 337.2V350.3C158.7 365.9 171.3 378.5 186.9 378.5H193.9C189.7 391.5 178.7 419.2 155.3 439.2C152.2 441.8 150.2 445.5 149.5 449.5C149.3 450.5 149.3 451.5 149.3 452.5V481.9C149.3 489.8 158.8 494.4 182 497.9C200.1 500.6 224.1 502.1 249.6 502.1C275.5 502.1 302.4 500.6 323.5 497.9C356.2 493.7 362.8 488.7 362.8 481.9V453C362.8 449.8 362 446.9 360.5 444.2C359.4 442.3 358 440.6 356.3 439.2C336.8 423.4 322.2 402.3 314.3 378.5H325.1C340.7 378.5 353.3 365.9 353.3 350.3V337.2C353.3 330 347.6 324.1 340.5 323.8C349.3 308.1 366.3 273.7 374.1 230.3C377.7 210.1 378.8 190.5 377.5 171.5ZM214 38.4C225.6 27.8 240.5 22 256 22C271.5 22 286.4 27.8 297.9 38.3C316.3 55 331 73.4 342 93.1C331.9 91.5 317.8 91.8 306 100.7C288.4 114 281.9 141.8 286.6 183.3C290.3 215.1 285 236.2 271.1 246C250.6 260.5 215.9 248.2 203.6 243.1C206.7 230.9 211.8 217.7 218.8 203.5C241.3 157.8 232 119.9 220.2 96.2C211.3 78.1 199.8 65.5 193.5 59.5C199.7 52.2 206.6 45.2 214 38.4ZM152.8 135.1C159.2 111.4 170.4 89.2 186 68.8C191.7 74.5 201.7 85.7 209.5 101.5C224.8 132.5 224.4 165 208.1 198.2C186.7 241.6 182.3 277.3 194.9 304.1C200.3 315.6 201 318.8 200.6 323.8H185.5C179.4 313.7 158.5 276.4 149.9 228.3C143.9 195.4 144.9 164.1 152.8 135.1ZM350.8 479.8C342.6 484.2 301.7 490 249.6 490C196.7 490 167.1 483.9 161.3 480.2V459.7C166.4 461.5 173.2 463 182 464.3C200.1 467 224.1 468.5 249.6 468.5C275.5 468.5 302.4 467 323.5 464.3C336.1 462.7 344.9 461 350.8 459V479.8ZM347.6 447.6C334.7 451.8 296.7 456.6 249.6 456.6C201.8 456.6 173.1 451.6 163.6 447.9C191.5 423.7 203 390.7 206.5 378.5H301.8C305.1 390.5 316.4 421.9 347.6 447.6ZM341.2 337.2V350.3C341.2 359.2 334 366.5 325 366.5H186.9C178 366.5 170.7 359.3 170.7 350.3V337.2C170.7 336.4 171.3 335.8 172.1 335.8H339.8C340.6 335.8 341.2 336.4 341.2 337.2Z" fill="#F1D1AF"/>
</svg>
