<svg width="512" height="512" viewBox="0 0 512 512" fill="none" xmlns="http://www.w3.org/2000/svg">
<path d="M257.71 318.451C248.71 318.461 240.08 322.041 233.716 328.406C227.352 334.77 223.772 343.399 223.762 352.4V391.856C223.774 400.856 227.354 409.483 233.718 415.847C240.082 422.21 248.71 425.79 257.71 425.8H257.717C266.718 425.79 275.347 422.21 281.711 415.845C288.076 409.481 291.656 400.852 291.666 391.851V352.4C291.656 343.398 288.075 334.768 281.709 328.404C275.343 322.039 266.712 318.46 257.71 318.451ZM279.666 391.851C279.66 397.67 277.345 403.249 273.23 407.364C269.115 411.479 263.536 413.793 257.717 413.8H257.71C251.891 413.793 246.312 411.479 242.198 407.364C238.083 403.249 235.769 397.67 235.762 391.851V352.4C235.84 346.63 238.187 341.122 242.295 337.069C246.403 333.017 251.942 330.744 257.712 330.744C263.483 330.744 269.022 333.017 273.13 337.069C277.237 341.122 279.584 346.63 279.662 352.4L279.666 391.851Z" fill="#F1D1AF"/>
<path d="M81.3319 129.087C80.5603 129.247 79.8278 129.557 79.1761 130C78.5244 130.443 77.9664 131.01 77.5338 131.669C77.1013 132.327 76.8027 133.065 76.6552 133.839C76.5076 134.613 76.514 135.408 76.6739 136.18C79.0042 147.187 80.335 158.383 80.6499 169.63C80.686 171.197 81.334 172.688 82.4554 173.784C83.5767 174.879 85.0823 175.492 86.6499 175.492H86.7909C87.5787 175.474 88.3552 175.301 89.076 174.983C89.7969 174.665 90.448 174.208 90.9923 173.638C91.5365 173.068 91.9632 172.397 92.248 171.662C92.5327 170.927 92.67 170.144 92.6519 169.356C92.3191 157.383 90.9053 145.465 88.4279 133.746C88.2682 132.974 87.9579 132.241 87.5148 131.589C87.0717 130.937 86.5044 130.379 85.8454 129.946C85.1864 129.513 84.4486 129.215 83.6742 129.067C82.8997 128.92 82.1038 128.927 81.3319 129.087Z" fill="#F1D1AF"/>
<path d="M80.3309 125C81.8595 124.558 83.1502 123.528 83.9191 122.135C84.6879 120.742 84.8721 119.101 84.4309 117.572C82.7779 111.843 81.5259 108.457 81.4739 108.316C80.9201 106.824 79.7964 105.613 78.3499 104.95C76.9035 104.287 75.2528 104.225 73.7609 104.779C72.2691 105.333 71.0583 106.456 70.395 107.903C69.7317 109.349 69.6701 111 70.2239 112.492C70.2349 112.523 71.3859 115.644 72.9009 120.898C73.3424 122.427 74.3729 123.717 75.7659 124.486C77.1589 125.255 78.8002 125.439 80.3289 124.998L80.3309 125Z" fill="#F1D1AF"/>
<path d="M493.613 43.67C492.317 43.394 490.929 43.094 489.448 42.77C460.212 36.407 391.748 21.511 289.153 44.127C287.235 44.544 285.479 45.5069 284.095 46.8996C282.712 48.2922 281.761 50.0553 281.357 51.9761C280.954 53.8969 281.114 55.8936 281.819 57.7254C282.524 59.5572 283.744 61.1459 285.332 62.3C305.532 77.354 316.758 107.759 322.996 137.638C323.279 138.989 324.018 140.202 325.09 141.073C326.162 141.943 327.5 142.418 328.881 142.417H329.018C329.915 142.416 330.8 142.214 331.61 141.827C332.419 141.44 333.132 140.878 333.696 140.18C334.26 139.483 334.662 138.669 334.872 137.797C335.081 136.924 335.094 136.017 334.908 135.139C330.493 114.132 324.646 98.033 318.417 85.694C351.862 79.67 400.917 74.376 464.617 84.923C452.804 107.961 442.326 144.355 440.182 201.693C439.929 209.258 436.741 216.428 431.295 221.684C425.848 226.94 418.569 229.87 411 229.854H371.671C364.107 229.877 356.831 226.955 351.383 221.707C345.936 216.459 342.746 209.296 342.488 201.736C342.288 196.309 342.013 191.068 341.662 186.012C341.611 185.219 341.404 184.443 341.052 183.73C340.7 183.018 340.211 182.382 339.612 181.859C339.013 181.336 338.316 180.938 337.562 180.686C336.808 180.434 336.012 180.334 335.219 180.391C334.426 180.449 333.652 180.663 332.943 181.021C332.233 181.379 331.601 181.874 331.084 182.478C330.566 183.081 330.174 183.781 329.928 184.537C329.683 185.293 329.59 186.091 329.654 186.883C330.072 192.649 330.334 197.826 330.497 202.183C330.7 208.084 332.172 213.872 334.814 219.153C337.456 224.434 341.206 229.083 345.807 232.783V263.406C345.807 268.57 348.997 273.226 354.132 275.555C359.109 277.78 364.315 279.452 369.657 280.54V294.486C369.659 296.144 370.077 297.775 370.875 299.229C371.672 300.683 372.823 301.913 374.22 302.806V349.447C374.215 354.154 372.343 358.667 369.014 361.996C365.686 365.324 361.172 367.196 356.465 367.2H315.106V350.073C315.115 339.119 311.977 328.394 306.065 319.173C309.914 317.268 313.155 314.326 315.423 310.678C317.691 307.03 318.895 302.822 318.9 298.527C318.9 279.943 309.46 267.117 293.6 263.047C298.438 254.518 300.211 242.141 292.589 224.593C285.982 209.385 274.426 195.116 268.218 187.45C267.562 186.64 266.961 185.898 266.426 185.229C265.552 184.136 264.47 183.228 263.243 182.557C262.016 181.885 260.667 181.463 259.276 181.316C257.885 181.169 256.478 181.3 255.137 181.7C253.797 182.1 252.549 182.762 251.466 183.648C224.804 205.474 211.318 226.302 211.385 245.553C211.371 251.815 212.957 257.976 215.993 263.453C209.325 265.719 203.533 270.014 199.428 275.736C195.323 281.458 193.11 288.321 193.1 295.363C193.106 300.481 194.608 305.486 197.422 309.761C200.235 314.037 204.238 317.396 208.936 319.426C203.127 328.591 200.046 339.221 200.055 350.073V367.2H155.535C150.829 367.195 146.317 365.324 142.988 361.997C139.66 358.67 137.787 354.158 137.781 349.452V302.806C139.178 301.913 140.329 300.683 141.126 299.229C141.924 297.775 142.342 296.144 142.344 294.486V279.928C147.442 278.871 152.464 277.476 157.377 275.753C159.943 274.86 162.169 273.192 163.748 270.981C165.327 268.77 166.182 266.123 166.194 263.406V232.784C170.796 229.084 174.545 224.435 177.187 219.154C179.829 213.874 181.302 208.085 181.504 202.184C182.731 169.3 189.6 89.833 226.742 62.245C228.307 61.078 229.504 59.4858 230.19 57.6581C230.877 55.8303 231.023 53.8439 230.613 51.9351C230.203 50.0264 229.253 48.2757 227.876 46.8915C226.499 45.5072 224.754 44.5477 222.847 44.127C120.256 21.511 51.788 36.408 22.552 42.77C20.952 43.118 19.4597 43.4403 18.075 43.737C16.1457 44.148 14.3769 45.1097 12.983 46.5056C11.5891 47.9014 10.6299 49.6715 10.2215 51.6014C9.81308 53.5313 9.97307 55.5382 10.682 57.379C11.391 59.2199 12.6186 60.8156 14.216 61.973C51.667 89.2 58.587 169.067 59.824 202.141C60.0235 207.94 61.4475 213.631 64.0026 218.84C66.5576 224.05 70.1859 228.659 74.649 232.367V264.135C74.6496 266.65 75.3766 269.11 76.7426 271.221C78.1087 273.333 80.0555 275.004 82.349 276.035C87.2584 278.087 92.3815 279.584 97.623 280.5V294.484C97.6241 296.104 98.0234 297.7 98.7857 299.13C99.5481 300.559 100.65 301.78 101.995 302.684V349.705C102.012 364.315 107.824 378.321 118.156 388.651C128.487 398.981 142.494 404.79 157.104 404.805H201.239C203.279 414.589 207.825 423.675 214.43 431.175C221.036 438.674 229.475 444.331 238.923 447.59V462.48C238.923 467.127 240.769 471.583 244.055 474.868C247.34 478.154 251.796 480 256.443 480C261.09 480 265.546 478.154 268.832 474.868C272.117 471.583 273.963 467.127 273.963 462.48V448.327C283.927 445.346 292.9 439.729 299.934 432.068C306.968 424.408 311.801 414.989 313.923 404.808H354.9C369.51 404.793 383.517 398.984 393.848 388.654C404.18 378.324 409.992 364.318 410.009 349.708V302.69C411.354 301.786 412.456 300.565 413.218 299.136C413.981 297.706 414.38 296.11 414.381 294.49V280.313C419.608 279.424 424.728 277.991 429.657 276.038C431.951 275.007 433.897 273.336 435.263 271.224C436.629 269.113 437.356 266.653 437.357 264.138V232.367C441.82 228.659 445.448 224.05 448.003 218.84C450.559 213.631 451.983 207.94 452.182 202.141C453.419 169.067 460.339 89.202 497.79 61.972C499.435 60.7958 500.688 59.1536 501.39 57.2574C502.091 55.3612 502.208 53.2982 501.725 51.335C501.232 49.4231 500.209 47.6894 498.774 46.3334C497.339 44.9773 495.55 44.0541 493.613 43.67ZM24.349 54.66L25.1 54.5C53.212 48.382 118.581 34.163 216.53 55.04C209.862 60.8433 204.122 67.6337 199.51 75.175C143.866 65.386 92.07 65.185 41.453 74.566C36.8126 67.0881 31.043 60.3733 24.349 54.66ZM71.815 201.693C69.693 144.939 59.406 108.7 47.741 85.629C94.369 77.492 142.148 77.707 193.281 86.282C181.76 109.369 171.612 145.468 169.513 201.736C169.255 209.296 166.065 216.459 160.618 221.707C155.171 226.955 147.894 229.877 140.33 229.854H101C93.4302 229.871 86.1509 226.941 80.7036 221.685C75.2562 216.429 72.0683 209.259 71.815 201.693ZM87.248 265.083C87.0671 265 86.9141 264.866 86.8076 264.698C86.7011 264.53 86.6457 264.334 86.648 264.135V239.3C91.243 240.995 96.1025 241.859 101 241.854H140.328C145.051 241.86 149.74 241.059 154.193 239.486V263.406C154.183 263.637 154.101 263.86 153.96 264.043C153.818 264.227 153.623 264.362 153.402 264.43C115.944 277.575 87.53 265.21 87.248 265.083ZM109.623 282.074C112.395 282.282 115.298 282.399 118.318 282.399C122.335 282.397 126.348 282.191 130.344 281.781V292.381H109.623V282.074ZM200.058 392.808H157.1C145.674 392.794 134.719 388.25 126.64 380.17C118.56 372.091 114.014 361.137 114 349.711V304.377H125.786V349.447C125.794 357.335 128.931 364.897 134.508 370.475C140.085 376.053 147.647 379.191 155.535 379.2H200.058V392.808ZM257.953 193.848C258.25 194.216 258.562 194.601 258.887 195.002C264.735 202.224 275.621 215.666 281.576 229.374C289.796 248.296 284.053 257.283 280.082 261.311C280.582 257.776 280.313 254.174 279.295 250.752C278.277 247.329 276.533 244.167 274.182 241.479C271.831 238.792 268.928 236.643 265.672 235.179C262.415 233.715 258.881 232.971 255.311 232.996C251.74 233.022 248.217 233.816 244.982 235.327C241.746 236.837 238.874 239.027 236.562 241.747C234.249 244.468 232.551 247.655 231.581 251.092C230.612 254.528 230.395 258.133 230.945 261.661H229.271C225.347 257.098 223.248 251.245 223.379 245.228C223.449 234.773 229.539 217.419 257.953 193.848ZM268.317 257.898C268.315 259.174 268.124 260.442 267.749 261.661H243.217C242.676 259.896 242.522 258.035 242.765 256.206C243.009 254.376 243.644 252.62 244.628 251.058C245.612 249.497 246.921 248.165 248.467 247.156C250.012 246.146 251.757 245.482 253.583 245.208C255.408 244.935 257.271 245.058 259.045 245.57C260.818 246.082 262.46 246.971 263.859 248.175C265.258 249.38 266.38 250.872 267.149 252.55C267.919 254.228 268.317 256.052 268.317 257.898ZM261.963 462.483C261.963 463.947 261.381 465.351 260.346 466.386C259.311 467.421 257.907 468.003 256.443 468.003C254.979 468.003 253.575 467.421 252.54 466.386C251.505 465.351 250.923 463.947 250.923 462.483V450.318C253.131 450.579 255.352 450.713 257.576 450.718H257.588C259.062 450.718 260.517 450.644 261.963 450.535V462.483ZM303.106 393.2C303.092 405.268 298.292 416.838 289.759 425.371C281.226 433.904 269.656 438.704 257.588 438.718H257.576C245.508 438.704 233.938 433.904 225.405 425.371C216.872 416.838 212.072 405.268 212.058 393.2V350.073C212.058 337.999 216.854 326.42 225.392 317.883C233.929 309.345 245.508 304.549 257.582 304.549C269.656 304.549 281.235 309.345 289.772 317.883C298.31 326.42 303.106 337.999 303.106 350.073V393.2ZM298.143 309.332C287.37 298.584 272.773 292.552 257.556 292.558C242.339 292.565 227.746 298.61 216.983 309.367C213.668 308.813 210.656 307.103 208.481 304.541C206.307 301.978 205.11 298.728 205.103 295.367C205.111 289.613 207.401 284.096 211.471 280.028C215.541 275.96 221.058 273.673 226.812 273.667H282.023C302.582 273.667 306.897 287.189 306.897 298.533C306.892 301.062 306.02 303.513 304.427 305.477C302.834 307.442 300.616 308.801 298.143 309.329V309.332ZM398.005 349.714C397.992 361.142 393.445 372.098 385.363 380.179C377.281 388.259 366.324 392.803 354.896 392.814H315.106V379.2H356.465C364.353 379.192 371.915 376.056 377.493 370.479C383.071 364.902 386.209 357.34 386.219 349.452V304.382H398.005V349.714ZM402.377 292.38H381.656V282.236C384.645 282.472 387.61 282.581 390.518 282.581C394.618 282.581 398.601 282.367 402.377 282.01V292.38ZM425.351 264.138C425.353 264.337 425.298 264.533 425.191 264.701C425.085 264.869 424.932 265.003 424.751 265.086C415.486 269.231 382.351 275.181 359.088 264.63C358.344 264.293 357.805 263.779 357.805 263.409V239.489C362.258 241.062 366.947 241.863 371.67 241.857H411C415.898 241.861 420.757 240.996 425.352 239.301L425.351 264.138ZM471.017 73.844C400.662 61.527 347.305 68.023 312.153 74.644C307.606 67.3078 301.981 60.6978 295.467 55.036C393.417 34.158 458.785 48.378 486.897 54.496L487.651 54.66C481.174 60.1826 475.566 66.6499 471.017 73.844Z" fill="#F1D1AF"/>
</svg>
