<svg width="512" height="512" viewBox="0 0 512 512" fill="none" xmlns="http://www.w3.org/2000/svg">
<path d="M231.221 88.891C229.629 88.891 228.103 89.5231 226.978 90.6484C225.853 91.7736 225.221 93.2997 225.221 94.891V171.224C225.221 172.815 225.853 174.341 226.978 175.467C228.103 176.592 229.629 177.224 231.221 177.224C232.812 177.224 234.338 176.592 235.463 175.467C236.589 174.341 237.221 172.815 237.221 171.224V94.891C237.221 93.2997 236.589 91.7736 235.463 90.6484C234.338 89.5231 232.812 88.891 231.221 88.891Z" fill="#F1D1AF"/>
<path d="M237.221 64.389C237.221 62.7977 236.589 61.2716 235.463 60.1464C234.338 59.0212 232.812 58.389 231.221 58.389C229.629 58.389 228.103 59.0212 226.978 60.1464C225.853 61.2716 225.221 62.7977 225.221 64.389V72.664C225.221 74.2553 225.853 75.7815 226.978 76.9067C228.103 78.0319 229.629 78.664 231.221 78.664C232.812 78.664 234.338 78.0319 235.463 76.9067C236.589 75.7815 237.221 74.2553 237.221 72.664V64.389Z" fill="#F1D1AF"/>
<path d="M307.516 144.926C309.107 144.926 310.633 144.294 311.759 143.169C312.884 142.043 313.516 140.517 313.516 138.926V28.058C313.526 25.1963 312.574 22.4143 310.811 20.1595C309.049 17.9047 306.579 16.3083 303.8 15.627C273.159 8.12449 241.16 8.12449 210.519 15.627C207.738 16.3072 205.267 17.9031 203.504 20.158C201.741 22.4128 200.787 25.1955 200.797 28.058V451.139C200.309 451.449 199.845 451.796 199.409 452.176C198.18 453.268 197.197 454.608 196.523 456.107C195.85 457.607 195.502 459.232 195.503 460.876V485.622C195.512 488.408 196.518 491.098 198.339 493.206C200.159 495.315 202.674 496.702 205.429 497.117C208.622 497.581 211.51 498.017 214.209 498.43C228.336 500.576 237.724 502.003 258.442 502.003H259.185C277.485 501.974 284.063 500.845 294.02 499.138C297.513 498.538 301.471 497.859 306.569 497.119C309.325 496.704 311.842 495.317 313.664 493.208C315.486 491.098 316.493 488.406 316.503 485.619V460.874C316.502 458.003 315.439 455.233 313.519 453.098V188.926C313.519 187.335 312.887 185.809 311.762 184.683C310.636 183.558 309.11 182.926 307.519 182.926C305.928 182.926 304.402 183.558 303.276 184.683C302.151 185.809 301.519 187.335 301.519 188.926V449.6C296.98 450.167 293.506 450.677 290.395 451.135C281.93 452.377 276.821 453.128 261.27 453.209C240.503 453.321 231.48 452.199 216.537 450.343L212.797 449.88V28.058C212.792 27.883 212.846 27.7115 212.95 27.5709C213.054 27.4303 213.203 27.3289 213.372 27.283C242.139 20.2388 272.18 20.2388 300.947 27.283C301.115 27.329 301.263 27.4304 301.367 27.5708C301.471 27.7112 301.524 27.8825 301.519 28.057V138.926C301.519 140.517 302.151 142.042 303.275 143.168C304.4 144.293 305.925 144.925 307.516 144.926ZM215.055 462.246C230.477 464.162 239.797 465.304 261.33 465.204C277.73 465.118 283.458 464.276 292.135 463.004C295.518 462.504 299.335 461.946 304.5 461.32V485.29C299.415 486.032 295.475 486.708 291.989 487.306C282.299 488.968 276.45 489.971 259.163 489.999C238.863 490.018 230.246 488.727 216.008 486.562C213.385 486.162 210.584 485.739 207.5 485.29V461.318C210.21 461.645 212.706 461.955 215.055 462.246Z" fill="#F1D1AF"/>
</svg>
