<svg width="1920" height="1503" viewBox="0 0 1920 1503" fill="none" xmlns="http://www.w3.org/2000/svg">
<g clip-path="url(#clip0_20_119)">
<rect width="1920" height="1503" fill="#0D0D0D"/>
<mask id="path-1-outside-1_20_119" maskUnits="userSpaceOnUse" x="51" y="15" width="211" height="1526" fill="black">
<rect fill="white" x="51" y="15" width="211" height="1526"/>
<path d="M261 1442.3C261 1462.45 256.634 1479.86 247.903 1494.51C239.171 1509.07 226.956 1520.31 211.258 1528.24C195.56 1536.08 177.307 1540 156.5 1540C135.693 1540 117.44 1536.08 101.742 1528.24C86.0438 1520.31 73.8289 1509.07 65.0974 1494.51C56.3658 1479.86 52 1462.45 52 1442.3C52 1419.15 57.7127 1399.74 69.138 1384.07C80.5634 1368.3 96.0294 1357.19 115.536 1350.75L126.125 1389.11C113.957 1392.84 104.529 1399.14 97.8407 1408C91.0598 1416.87 87.6694 1428.3 87.6694 1442.3C87.6694 1455.08 90.5025 1465.77 96.1687 1474.35C101.835 1482.84 109.823 1489.24 120.134 1493.53C130.445 1497.82 142.567 1499.97 156.5 1499.97C170.433 1499.97 182.555 1497.82 192.866 1493.53C203.177 1489.24 211.165 1482.84 216.831 1474.35C222.498 1465.77 225.331 1455.08 225.331 1442.3C225.331 1428.3 221.94 1416.87 215.159 1408C208.378 1399.14 198.95 1392.84 186.875 1389.11L197.464 1350.75C216.971 1357.19 232.437 1368.3 243.862 1384.07C255.287 1399.74 261 1419.15 261 1442.3ZM261 1233.43C261 1253.58 256.634 1270.99 247.903 1285.64C239.171 1300.19 226.956 1311.44 211.258 1319.37C195.56 1327.21 177.307 1331.13 156.5 1331.13C135.693 1331.13 117.44 1327.21 101.742 1319.37C86.0438 1311.44 73.8289 1300.19 65.0974 1285.64C56.3658 1270.99 52 1253.58 52 1233.43C52 1213.27 56.3658 1195.91 65.0974 1181.35C73.8289 1166.7 86.0438 1155.46 101.742 1147.62C117.44 1139.69 135.693 1135.72 156.5 1135.72C177.307 1135.72 195.56 1139.69 211.258 1147.62C226.956 1155.46 239.171 1166.7 247.903 1181.35C256.634 1195.91 261 1213.27 261 1233.43ZM225.331 1233.43C225.516 1220.64 222.776 1210 217.11 1201.51C211.444 1193.02 203.409 1186.67 193.005 1182.47C182.602 1178.18 170.433 1176.03 156.5 1176.03C142.567 1176.03 130.491 1178.18 120.273 1182.47C110.056 1186.67 102.114 1193.02 96.4474 1201.51C90.7811 1210 87.8551 1220.64 87.6693 1233.43C87.4836 1246.21 90.2238 1256.85 95.89 1265.34C101.556 1273.83 109.591 1280.22 119.995 1284.52C130.398 1288.72 142.567 1290.82 156.5 1290.82C170.433 1290.82 182.509 1288.72 192.727 1284.52C202.944 1280.22 210.886 1273.83 216.553 1265.34C222.219 1256.85 225.145 1246.21 225.331 1233.43ZM256.82 1107.78H56.18L56.18 1069.15L189.94 981.52H56.18L56.18 942.887L256.82 942.887V981.52L123.06 1069.15H256.82V1107.78ZM256.82 857.077H91.5707L91.5707 920.626L56.18 920.626L56.18 755.454H91.5707L91.5707 819.003H256.82V857.077ZM256.82 752.425L56.18 690.835L56.18 634.005L256.82 572.415V611.608L79.8667 666.479V659.2L256.82 713.231V752.425ZM215.02 715.471H179.629V609.089H215.02V715.471ZM261 466.289C261 486.445 256.634 503.849 247.903 518.5C239.171 533.058 226.956 544.302 211.258 552.234C195.56 560.073 177.307 563.992 156.5 563.992C135.693 563.992 117.44 560.073 101.742 552.234C86.0438 544.302 73.8289 533.058 65.0973 518.5C56.3658 503.849 52 486.445 52 466.289C52 443.146 57.7127 423.736 69.138 408.059C80.5633 392.288 96.0293 381.183 115.536 374.744L126.125 413.098C113.957 416.831 104.529 423.129 97.8407 431.995C91.0598 440.86 87.6693 452.291 87.6693 466.289C87.6693 479.073 90.5024 489.758 96.1687 498.343C101.835 506.835 109.823 513.228 120.134 517.52C130.445 521.813 142.567 523.959 156.5 523.959C170.433 523.959 182.555 521.813 192.866 517.52C203.177 513.228 211.165 506.835 216.831 498.343C222.498 489.758 225.331 479.073 225.331 466.289C225.331 452.291 221.94 440.86 215.159 431.995C208.378 423.129 198.95 416.831 186.875 413.098L197.464 374.744C216.971 381.183 232.437 392.288 243.862 408.059C255.287 423.736 261 443.146 261 466.289ZM256.82 297.171H91.5706L91.5706 360.72H56.18L56.18 195.548L91.5706 195.548L91.5706 259.098L256.82 259.098V297.171ZM261 96.9064C261 111.837 258.399 125.322 253.197 137.36C247.903 149.304 240.379 159.149 230.625 166.895C220.779 174.547 209.075 179.399 195.513 181.452L189.661 141.699C201.18 138.899 210.05 133.114 216.274 124.342C222.498 115.57 225.609 105.585 225.609 94.3868C225.609 88.1345 224.634 82.0689 222.683 76.1899C220.733 70.3109 217.853 65.505 214.045 61.7723C210.236 57.9463 205.545 56.0333 199.972 56.0333C197.928 56.0333 195.978 56.3599 194.12 57.0131C192.169 57.573 190.358 58.5528 188.686 59.9526C187.014 61.3524 185.435 63.3587 183.949 65.9716C182.462 68.4912 181.116 71.7106 179.908 75.63L164.581 127.981C163.467 131.901 161.888 136.473 159.844 141.699C157.8 146.831 154.874 151.824 151.066 156.676C147.258 161.529 142.242 165.588 136.018 168.854C129.702 172.027 121.76 173.613 112.192 173.613C98.7231 173.613 87.53 170.207 78.6126 163.395C69.6953 156.583 63.0538 147.485 58.688 136.1C54.3222 124.715 52.1858 112.117 52.2786 98.3062C52.4644 84.4018 54.8331 71.9906 59.3846 61.0724C63.9362 50.1543 70.5778 41.0091 79.3093 33.637C87.948 26.265 98.5373 20.9458 111.077 17.6797L118.044 58.8328C111.542 60.3259 106.061 63.0788 101.603 67.0914C97.144 71.1041 93.7535 75.9099 91.4313 81.509C89.1091 87.0147 87.8551 92.8004 87.6693 98.8661C87.4835 104.838 88.3195 110.484 90.1773 115.803C91.9422 121.029 94.5431 125.322 97.98 128.681C101.417 131.947 105.504 133.58 110.241 133.58C114.607 133.58 118.183 132.227 120.97 129.521C123.664 126.815 125.847 123.409 127.519 119.303C129.191 115.197 130.584 110.997 131.699 106.705L141.173 71.7106C142.567 66.4848 144.424 60.6992 146.747 54.3536C148.976 48.008 152.134 41.9423 156.221 36.1566C160.216 30.2776 165.51 25.4717 172.105 21.739C178.7 17.913 187.06 16 197.185 16C207.96 16 217.389 18.2863 225.47 22.8588C233.458 27.3381 240.1 33.4037 245.395 41.0558C250.596 48.7078 254.498 57.3864 257.099 67.0914C259.699 76.7031 261 86.6414 261 96.9064Z"/>
</mask>
<path d="M261 1442.3C261 1462.45 256.634 1479.86 247.903 1494.51C239.171 1509.07 226.956 1520.31 211.258 1528.24C195.56 1536.08 177.307 1540 156.5 1540C135.693 1540 117.44 1536.08 101.742 1528.24C86.0438 1520.31 73.8289 1509.07 65.0974 1494.51C56.3658 1479.86 52 1462.45 52 1442.3C52 1419.15 57.7127 1399.74 69.138 1384.07C80.5634 1368.3 96.0294 1357.19 115.536 1350.75L126.125 1389.11C113.957 1392.84 104.529 1399.14 97.8407 1408C91.0598 1416.87 87.6694 1428.3 87.6694 1442.3C87.6694 1455.08 90.5025 1465.77 96.1687 1474.35C101.835 1482.84 109.823 1489.24 120.134 1493.53C130.445 1497.82 142.567 1499.97 156.5 1499.97C170.433 1499.97 182.555 1497.82 192.866 1493.53C203.177 1489.24 211.165 1482.84 216.831 1474.35C222.498 1465.77 225.331 1455.08 225.331 1442.3C225.331 1428.3 221.94 1416.87 215.159 1408C208.378 1399.14 198.95 1392.84 186.875 1389.11L197.464 1350.75C216.971 1357.19 232.437 1368.3 243.862 1384.07C255.287 1399.74 261 1419.15 261 1442.3ZM261 1233.43C261 1253.58 256.634 1270.99 247.903 1285.64C239.171 1300.19 226.956 1311.44 211.258 1319.37C195.56 1327.21 177.307 1331.13 156.5 1331.13C135.693 1331.13 117.44 1327.21 101.742 1319.37C86.0438 1311.44 73.8289 1300.19 65.0974 1285.64C56.3658 1270.99 52 1253.58 52 1233.43C52 1213.27 56.3658 1195.91 65.0974 1181.35C73.8289 1166.7 86.0438 1155.46 101.742 1147.62C117.44 1139.69 135.693 1135.72 156.5 1135.72C177.307 1135.72 195.56 1139.69 211.258 1147.62C226.956 1155.46 239.171 1166.7 247.903 1181.35C256.634 1195.91 261 1213.27 261 1233.43ZM225.331 1233.43C225.516 1220.64 222.776 1210 217.11 1201.51C211.444 1193.02 203.409 1186.67 193.005 1182.47C182.602 1178.18 170.433 1176.03 156.5 1176.03C142.567 1176.03 130.491 1178.18 120.273 1182.47C110.056 1186.67 102.114 1193.02 96.4474 1201.51C90.7811 1210 87.8551 1220.64 87.6693 1233.43C87.4836 1246.21 90.2238 1256.85 95.89 1265.34C101.556 1273.83 109.591 1280.22 119.995 1284.52C130.398 1288.72 142.567 1290.82 156.5 1290.82C170.433 1290.82 182.509 1288.72 192.727 1284.52C202.944 1280.22 210.886 1273.83 216.553 1265.34C222.219 1256.85 225.145 1246.21 225.331 1233.43ZM256.82 1107.78H56.18L56.18 1069.15L189.94 981.52H56.18L56.18 942.887L256.82 942.887V981.52L123.06 1069.15H256.82V1107.78ZM256.82 857.077H91.5707L91.5707 920.626L56.18 920.626L56.18 755.454H91.5707L91.5707 819.003H256.82V857.077ZM256.82 752.425L56.18 690.835L56.18 634.005L256.82 572.415V611.608L79.8667 666.479V659.2L256.82 713.231V752.425ZM215.02 715.471H179.629V609.089H215.02V715.471ZM261 466.289C261 486.445 256.634 503.849 247.903 518.5C239.171 533.058 226.956 544.302 211.258 552.234C195.56 560.073 177.307 563.992 156.5 563.992C135.693 563.992 117.44 560.073 101.742 552.234C86.0438 544.302 73.8289 533.058 65.0973 518.5C56.3658 503.849 52 486.445 52 466.289C52 443.146 57.7127 423.736 69.138 408.059C80.5633 392.288 96.0293 381.183 115.536 374.744L126.125 413.098C113.957 416.831 104.529 423.129 97.8407 431.995C91.0598 440.86 87.6693 452.291 87.6693 466.289C87.6693 479.073 90.5024 489.758 96.1687 498.343C101.835 506.835 109.823 513.228 120.134 517.52C130.445 521.813 142.567 523.959 156.5 523.959C170.433 523.959 182.555 521.813 192.866 517.52C203.177 513.228 211.165 506.835 216.831 498.343C222.498 489.758 225.331 479.073 225.331 466.289C225.331 452.291 221.94 440.86 215.159 431.995C208.378 423.129 198.95 416.831 186.875 413.098L197.464 374.744C216.971 381.183 232.437 392.288 243.862 408.059C255.287 423.736 261 443.146 261 466.289ZM256.82 297.171H91.5706L91.5706 360.72H56.18L56.18 195.548L91.5706 195.548L91.5706 259.098L256.82 259.098V297.171ZM261 96.9064C261 111.837 258.399 125.322 253.197 137.36C247.903 149.304 240.379 159.149 230.625 166.895C220.779 174.547 209.075 179.399 195.513 181.452L189.661 141.699C201.18 138.899 210.05 133.114 216.274 124.342C222.498 115.57 225.609 105.585 225.609 94.3868C225.609 88.1345 224.634 82.0689 222.683 76.1899C220.733 70.3109 217.853 65.505 214.045 61.7723C210.236 57.9463 205.545 56.0333 199.972 56.0333C197.928 56.0333 195.978 56.3599 194.12 57.0131C192.169 57.573 190.358 58.5528 188.686 59.9526C187.014 61.3524 185.435 63.3587 183.949 65.9716C182.462 68.4912 181.116 71.7106 179.908 75.63L164.581 127.981C163.467 131.901 161.888 136.473 159.844 141.699C157.8 146.831 154.874 151.824 151.066 156.676C147.258 161.529 142.242 165.588 136.018 168.854C129.702 172.027 121.76 173.613 112.192 173.613C98.7231 173.613 87.53 170.207 78.6126 163.395C69.6953 156.583 63.0538 147.485 58.688 136.1C54.3222 124.715 52.1858 112.117 52.2786 98.3062C52.4644 84.4018 54.8331 71.9906 59.3846 61.0724C63.9362 50.1543 70.5778 41.0091 79.3093 33.637C87.948 26.265 98.5373 20.9458 111.077 17.6797L118.044 58.8328C111.542 60.3259 106.061 63.0788 101.603 67.0914C97.144 71.1041 93.7535 75.9099 91.4313 81.509C89.1091 87.0147 87.8551 92.8004 87.6693 98.8661C87.4835 104.838 88.3195 110.484 90.1773 115.803C91.9422 121.029 94.5431 125.322 97.98 128.681C101.417 131.947 105.504 133.58 110.241 133.58C114.607 133.58 118.183 132.227 120.97 129.521C123.664 126.815 125.847 123.409 127.519 119.303C129.191 115.197 130.584 110.997 131.699 106.705L141.173 71.7106C142.567 66.4848 144.424 60.6992 146.747 54.3536C148.976 48.008 152.134 41.9423 156.221 36.1566C160.216 30.2776 165.51 25.4717 172.105 21.739C178.7 17.913 187.06 16 197.185 16C207.96 16 217.389 18.2863 225.47 22.8588C233.458 27.3381 240.1 33.4037 245.395 41.0558C250.596 48.7078 254.498 57.3864 257.099 67.0914C259.699 76.7031 261 86.6414 261 96.9064Z" stroke="white" stroke-opacity="0.1" stroke-width="2" mask="url(#path-1-outside-1_20_119)"/>
</g>
<defs>
<clipPath id="clip0_20_119">
<rect width="1920" height="1503" fill="white"/>
</clipPath>
</defs>
</svg>
