<svg width="671" height="147" viewBox="0 0 671 147" fill="none" xmlns="http://www.w3.org/2000/svg">
<path d="M233.5 65.5184C248.778 65.5184 261.208 53.0658 261.208 37.7594C261.208 22.4529 248.778 10 233.5 10C218.222 10 205.792 22.4529 205.792 37.7594C205.792 53.0658 218.222 65.5184 233.5 65.5184ZM233.5 24.6916C240.705 24.6916 246.546 30.5402 246.546 37.7583C246.546 44.9763 240.705 50.8279 233.5 50.8279C226.295 50.8279 220.454 44.9763 220.454 37.7583C220.454 30.5402 226.295 24.6916 233.5 24.6916Z" fill="#D78C43"/>
<path d="M267.843 138.889L239.881 85.8777H248.008V89.8954H256.062V73.6096H248.008V77.8083H237.528V73.3594C236.205 73.5087 234.862 73.5881 233.5 73.5881C232.139 73.5881 230.796 73.5087 229.473 73.3594V81.4156L199.157 138.889H192V146.958H214.603V138.889H208.267L229.472 98.6859V122.585H225.205V130.654H229.473V147H237.527V130.654H241.795V122.585H237.527V98.6859L258.733 138.889H252.397V146.958H275V138.889H267.843Z" fill="#D78C43"/>
<path d="M0 144V0H56.9C58.3 0 59.9667 0.0666658 61.9 0.199997C63.8333 0.266667 65.7 0.466668 67.5 0.800002C75.3 2 81.8333 4.66667 87.1 8.79999C92.4333 12.9333 96.4333 18.1667 99.1 24.5C101.767 30.7667 103.1 37.7333 103.1 45.4C103.1 53 101.733 59.9667 99 66.3C96.3333 72.5667 92.3333 77.8 87 82C81.7333 86.1333 75.2333 88.8 67.5 90C65.7 90.2667 63.8333 90.4667 61.9 90.6C59.9667 90.7333 58.3 90.8 56.9 90.8H17.8V144H0ZM17.8 73.9H56.3C57.5667 73.9 59 73.8333 60.6 73.7C62.2667 73.5667 63.8333 73.3333 65.3 73C69.9 71.9333 73.6333 70 76.5 67.2C79.4333 64.3333 81.5667 61 82.9 57.2C84.2333 53.3333 84.9 49.4 84.9 45.4C84.9 41.4 84.2333 37.5 82.9 33.7C81.5667 29.8333 79.4333 26.4667 76.5 23.6C73.6333 20.7333 69.9 18.8 65.3 17.8C63.8333 17.4 62.2667 17.1667 60.6 17.1C59 16.9667 57.5667 16.9 56.3 16.9H17.8V73.9Z" fill="white"/>
<path d="M123.047 144V36H138.947V62.1L136.347 58.7C137.614 55.3667 139.247 52.3 141.247 49.5C143.314 46.7 145.614 44.4 148.147 42.6C150.947 40.3333 154.114 38.6 157.647 37.4C161.18 36.2 164.78 35.5 168.447 35.3C172.114 35.0333 175.547 35.2667 178.747 36V52.7C175.014 51.7 170.914 51.4333 166.447 51.9C161.98 52.3667 157.847 54 154.047 56.8C150.58 59.2667 147.88 62.2667 145.947 65.8C144.08 69.3333 142.78 73.1667 142.047 77.3C141.314 81.3667 140.947 85.5333 140.947 89.8V144H123.047Z" fill="white"/>
<path d="M295.203 144V140.8L360.703 52.2H300.603V36H389.403V39.4L324.003 127.8H386.003V144H295.203Z" fill="white"/>
<path d="M540.553 144L540.653 74.9C540.653 66.8333 538.486 60.5333 534.153 56C529.886 51.4 524.32 49.1 517.453 49.1C513.453 49.1 509.653 50.0333 506.053 51.9C502.453 53.7 499.52 56.5667 497.253 60.5C494.986 64.3667 493.853 69.3333 493.853 75.4L484.453 71.6C484.32 63.9333 485.886 57.2333 489.153 51.5C492.486 45.7 497.02 41.2 502.753 38C508.486 34.8 514.953 33.2 522.153 33.2C533.42 33.2 542.286 36.6333 548.753 43.5C555.22 50.3 558.453 59.4667 558.453 71L558.353 144H540.553ZM411.353 144V36H427.253V64.9H429.253V144H411.353ZM476.053 144L476.153 75.6C476.153 67.3333 474.02 60.8667 469.753 56.2C465.486 51.4667 459.82 49.1 452.753 49.1C445.753 49.1 440.086 51.5 435.753 56.3C431.42 61.1 429.253 67.4667 429.253 75.4L419.853 69.8C419.853 62.8 421.52 56.5333 424.853 51C428.186 45.4667 432.72 41.1333 438.453 38C444.186 34.8 450.686 33.2 457.953 33.2C465.22 33.2 471.553 34.7333 476.953 37.8C482.353 40.8667 486.52 45.2667 489.453 51C492.386 56.6667 493.853 63.4333 493.853 71.3L493.753 144H476.053Z" fill="white"/>
<path d="M615.2 147C607.133 147 600.367 145.533 594.9 142.6C589.5 139.6 585.4 135.667 582.6 130.8C579.867 125.933 578.5 120.6 578.5 114.8C578.5 109.133 579.567 104.233 581.7 100.1C583.9 95.9 586.967 92.4333 590.9 89.7C594.833 86.9 599.533 84.7 605 83.1C610.133 81.7 615.867 80.5 622.2 79.5C628.6 78.4333 635.067 77.4667 641.6 76.6C648.133 75.7333 654.233 74.9 659.9 74.1L653.5 77.8C653.7 68.2 651.767 61.1 647.7 56.5C643.7 51.9 636.767 49.6 626.9 49.6C620.367 49.6 614.633 51.1 609.7 54.1C604.833 57.0333 601.4 61.8333 599.4 68.5L582.5 63.4C585.1 53.9333 590.133 46.5 597.6 41.1C605.067 35.7 614.9 33 627.1 33C636.9 33 645.3 34.7667 652.3 38.3C659.367 41.7667 664.433 47.0333 667.5 54.1C669.033 57.4333 670 61.0667 670.4 65C670.8 68.8667 671 72.9333 671 77.2V144H655.2V118.1L658.9 120.5C654.833 129.233 649.133 135.833 641.8 140.3C634.533 144.767 625.667 147 615.2 147ZM617.9 132.1C624.3 132.1 629.833 130.967 634.5 128.7C639.233 126.367 643.033 123.333 645.9 119.6C648.767 115.8 650.633 111.667 651.5 107.2C652.5 103.867 653.033 100.167 653.1 96.1C653.233 91.9667 653.3 88.8 653.3 86.6L659.5 89.3C653.7 90.1 648 90.8667 642.4 91.6C636.8 92.3333 631.5 93.1333 626.5 94C621.5 94.8 617 95.7667 613 96.9C610.067 97.8333 607.3 99.0333 604.7 100.5C602.167 101.967 600.1 103.867 598.5 106.2C596.967 108.467 596.2 111.3 596.2 114.7C596.2 117.633 596.933 120.433 598.4 123.1C599.933 125.767 602.267 127.933 605.4 129.6C608.6 131.267 612.767 132.1 617.9 132.1Z" fill="white"/>
</svg>
