<svg width="1920" height="1098" viewBox="0 0 1920 1098" fill="none" xmlns="http://www.w3.org/2000/svg">
<g clip-path="url(#clip0_20_96)">
<rect width="1920" height="1098" fill="#252527"/>
<path d="M1597.5 121.5H1597V122V163.4V163.9H1597.5H1739.82L1597.23 256.881L1597 257.029V257.3V298.7V299.2H1597.5L1813.5 299.2H1814V298.7L1814 257.3V256.8H1813.5H1671.18L1813.77 163.819L1814 163.671V163.4L1814 122V121.5H1813.5L1597.5 121.5ZM1597.5 340.055H1597V340.555V481.555V482.055H1597.5H1635.6H1636.1V481.555V381.855H1690.6L1690.6 463.555V464.055H1691.1H1729.2H1729.7V463.555V381.855H1774.9L1774.9 481.555V482.055H1775.4H1813.5H1814V481.555L1814 340.555V340.055H1813.5L1597.5 340.055ZM1597.36 562.328L1597 562.433V562.808V603.008V603.385L1597.36 603.488L1741.49 644.858L1597.36 686.227L1597 686.331V686.708V726.908V727.282L1597.36 727.388L1813.36 790.688L1814 790.875V790.208L1814 747.308V746.926L1813.63 746.825L1666.9 706.808L1813.63 666.79L1814 666.689L1814 666.304L1813.7 623.404L1813.7 623.025L1813.33 622.926L1666.9 582.908L1813.63 542.89L1814 542.79V542.408L1814 499.508V498.84L1813.36 499.028L1597.36 562.328ZM1600.94 846.472L1600.94 846.477C1595.31 859.448 1592.5 873.967 1592.5 890.026C1592.5 901.068 1593.91 911.762 1596.72 922.106C1599.53 932.555 1603.75 941.908 1609.39 950.158L1609.39 950.161C1615.13 958.423 1622.34 964.975 1631.01 969.812C1639.79 974.76 1650.03 977.226 1661.7 977.226C1672.66 977.226 1681.75 975.165 1688.95 971.01C1696.11 966.976 1701.86 961.777 1706.21 955.412C1710.63 949.178 1714.05 942.639 1716.47 935.795C1718.97 928.986 1720.98 922.773 1722.48 917.156C1722.48 917.156 1722.48 917.155 1722.48 917.155L1732.68 879.657L1732.68 879.652C1733.88 875.074 1735.37 870.595 1737.16 866.215C1738.94 861.868 1741.26 858.278 1744.1 855.432C1746.99 852.636 1750.71 851.226 1755.3 851.226C1760.27 851.226 1764.55 852.926 1768.15 856.337C1771.79 859.874 1774.55 864.402 1776.43 869.936L1776.43 869.941C1778.41 875.58 1779.3 881.568 1779.1 887.91L1779.1 887.91C1778.9 894.35 1777.57 900.489 1775.09 906.331L1775.09 906.334C1772.62 912.265 1769.01 917.354 1764.27 921.603C1759.54 925.841 1753.72 928.755 1746.79 930.338L1746.33 930.444L1746.41 930.91L1753.91 975.01L1754 975.546L1754.53 975.41C1768.09 971.894 1779.56 966.163 1788.92 958.208C1798.39 950.255 1805.58 940.389 1810.51 928.619C1815.44 916.851 1818 903.486 1818.2 888.533H1818.2L1818.2 888.529C1818.3 873.675 1815.99 860.112 1811.27 847.846C1806.54 835.567 1799.33 825.739 1789.65 818.378C1779.95 810.999 1767.79 807.326 1753.2 807.326C1742.85 807.326 1734.22 809.034 1727.33 812.479L1727.32 812.483C1720.56 816.011 1715.11 820.404 1710.96 825.666C1706.83 830.9 1703.66 836.291 1701.44 841.84L1701.43 841.843C1699.23 847.452 1697.53 852.367 1696.32 856.586C1696.32 856.587 1696.32 856.588 1696.32 856.588L1679.82 912.678C1679.82 912.679 1679.82 912.68 1679.82 912.681C1678.53 916.856 1677.09 920.266 1675.52 922.921L1675.52 922.928C1673.94 925.694 1672.27 927.791 1670.53 929.242C1668.78 930.7 1666.89 931.716 1664.86 932.295L1664.85 932.299L1664.83 932.304C1662.89 932.985 1660.85 933.326 1658.7 933.326C1652.83 933.326 1647.91 931.325 1643.9 927.322L1643.9 927.318C1639.86 923.382 1636.8 918.304 1634.72 912.068C1632.64 905.819 1631.6 899.373 1631.6 892.726C1631.6 880.825 1634.92 870.228 1641.56 860.916C1648.18 851.625 1657.62 845.487 1669.92 842.512L1670.36 842.404L1670.29 841.953L1663.99 799.353L1663.92 798.857L1663.43 798.931C1648.75 801.143 1636.07 806.373 1625.39 814.63L1625.39 814.634C1614.82 822.986 1606.67 833.602 1600.94 846.472Z" stroke="#252527"/>
<mask id="path-2-outside-1_20_96" maskUnits="userSpaceOnUse" x="12" y="-74" width="191" height="1246" fill="black">
<rect fill="white" x="12" y="-74" width="191" height="1246"/>
<path d="M198.22 1170L16.78 1114.07L16.78 1062.46L198.22 1006.53V1042.12L38.2 1091.95V1085.34L198.22 1134.41V1170ZM160.42 1136.44H128.416L128.416 1039.84H160.42V1136.44ZM198.22 983.748H16.78L16.78 910.531C16.78 897.481 19.384 886.93 24.592 878.88C29.716 870.829 36.184 864.939 43.996 861.211C51.808 857.482 59.704 855.618 67.684 855.618C77.848 855.618 86.29 857.948 93.01 862.609C99.73 867.185 104.224 873.498 106.492 881.549H100.192C102.544 870.109 107.794 861.55 115.942 855.872C124.09 850.11 133.204 847.228 143.284 847.228C154.12 847.228 163.654 849.262 171.886 853.33C180.118 857.313 186.586 863.414 191.29 871.634C195.91 879.854 198.22 890.193 198.22 902.65V983.748ZM165.964 948.665V906.209C165.964 901.548 164.998 897.396 163.066 893.752C161.05 890.108 158.278 887.269 154.75 885.235C151.138 883.117 146.896 882.057 142.024 882.057C137.74 882.057 133.918 882.947 130.558 884.727C127.198 886.506 124.552 889.218 122.62 892.862C120.604 896.421 119.596 900.87 119.596 906.209V948.665H165.964ZM87.592 948.665V911.039C87.592 907.141 86.92 903.667 85.576 900.616C84.232 897.565 82.174 895.15 79.402 893.371C76.546 891.591 72.892 890.701 68.44 890.701C62.896 890.701 58.234 892.438 54.454 895.913C50.674 899.387 48.784 904.429 48.784 911.039V948.665H87.592ZM202 743.321C202 761.625 198.052 777.43 190.156 790.734C182.26 803.954 171.214 814.165 157.018 821.369C142.822 828.487 126.316 832.046 107.5 832.046C88.684 832.046 72.178 828.487 57.982 821.369C43.786 814.165 32.74 803.954 24.844 790.734C16.948 777.43 13 761.625 13 743.321C13 725.016 16.948 709.254 24.844 696.034C32.74 682.73 43.786 672.518 57.982 665.4C72.178 658.197 88.684 654.595 107.5 654.595C126.316 654.595 142.822 658.197 157.018 665.4C171.214 672.518 182.26 682.73 190.156 696.034C198.052 709.254 202 725.016 202 743.321ZM169.744 743.321C169.912 731.711 167.434 722.05 162.31 714.339C157.186 706.627 149.92 700.865 140.512 697.051C131.104 693.153 120.1 691.204 107.5 691.204C94.9 691.204 83.98 693.153 74.74 697.051C65.5 700.865 58.318 706.627 53.194 714.339C48.07 722.05 45.424 731.711 45.256 743.321C45.088 754.93 47.566 764.591 52.69 772.303C57.814 780.014 65.08 785.819 74.488 789.717C83.896 793.531 94.9 795.437 107.5 795.437C120.1 795.437 131.02 793.531 140.26 789.717C149.5 785.819 156.682 780.014 161.806 772.303C166.93 764.591 169.576 754.93 169.744 743.321ZM202 554.732C202 569.477 199.06 582.442 193.18 593.628C187.216 604.814 178.858 613.543 168.106 619.814C157.354 626.085 144.712 629.22 130.18 629.22L17.032 629.22L16.78 594.137H129.928C135.892 594.137 141.31 593.12 146.182 591.086C151.054 589.052 155.254 586.256 158.782 582.697C162.31 579.053 165.04 574.858 166.972 570.112C168.82 565.282 169.744 560.155 169.744 554.732C169.744 549.139 168.778 543.969 166.846 539.224C164.914 534.393 162.184 530.199 158.656 526.639C155.128 523.08 150.928 520.326 146.056 518.377C141.184 516.343 135.808 515.326 129.928 515.326H16.78L16.78 480.243H130.18C144.712 480.243 157.354 483.378 168.106 489.649C178.858 495.92 187.216 504.649 193.18 515.835C199.06 527.021 202 539.986 202 554.732ZM198.22 402.3H48.784V460.01L16.78 460.01L16.78 310.016H48.784L48.784 367.725H198.22V402.3ZM202 171.901C202 186.646 199.06 199.611 193.18 210.797C187.216 221.983 178.858 230.712 168.106 236.983C157.354 243.254 144.712 246.389 130.18 246.389H17.032L16.78 211.306H129.928C135.892 211.306 141.31 210.289 146.182 208.255C151.054 206.221 155.254 203.425 158.782 199.866C162.31 196.222 165.04 192.027 166.972 187.281C168.82 182.451 169.744 177.324 169.744 171.901C169.744 166.308 168.778 161.138 166.846 156.393C164.914 151.562 162.184 147.368 158.656 143.808C155.128 140.249 150.928 137.495 146.056 135.546C141.184 133.512 135.808 132.495 129.928 132.495L16.78 132.495L16.78 97.4119H130.18C144.712 97.4119 157.354 100.547 168.106 106.818C178.858 113.089 187.216 121.818 193.18 133.004C199.06 144.19 202 157.155 202 171.901ZM202 0.471765C202 14.0306 199.648 26.2759 194.944 37.2076C190.156 48.0547 183.352 56.995 174.532 64.0287C165.628 70.9775 155.044 75.3842 142.78 77.2485L137.488 41.1482C147.904 38.6059 155.926 33.3519 161.554 25.3861C167.182 17.4203 169.996 8.35282 169.996 -1.81628C169.996 -7.49403 169.114 -13.0023 167.35 -18.3411C165.586 -23.6799 162.982 -28.0441 159.538 -31.4338C156.094 -34.9082 151.852 -36.6455 146.812 -36.6455C144.964 -36.6455 143.2 -36.3489 141.52 -35.7557C139.756 -35.2472 138.118 -34.3574 136.606 -33.0863C135.094 -31.8151 133.666 -29.9932 132.322 -27.6204C130.978 -25.3323 129.76 -22.4087 128.668 -18.8495L114.808 28.691C113.8 32.2502 112.372 36.4026 110.524 41.1482C108.676 45.809 106.03 50.3427 102.586 54.7494C99.142 59.156 94.606 62.8423 88.978 65.8083C83.266 68.6895 76.084 70.1301 67.432 70.1301C55.252 70.1301 45.13 67.037 37.066 60.8508C29.002 54.6646 22.996 46.4022 19.048 36.0636C15.1 25.725 13.168 14.2848 13.252 1.74291C13.42 -10.8837 15.562 -22.1545 19.678 -32.0694C23.794 -41.9842 29.8 -50.289 37.696 -56.9837C45.508 -63.6783 55.084 -68.5086 66.424 -71.4746L72.724 -34.1032C66.844 -32.7473 61.888 -30.2474 57.856 -26.6035C53.824 -22.9595 50.758 -18.5953 48.658 -13.5107C46.558 -8.51093 45.424 -3.25689 45.256 2.25137C45.088 7.67489 45.844 12.8018 47.524 17.6321C49.12 22.3777 51.472 26.2759 54.58 29.3266C57.688 32.2926 61.384 33.7756 65.668 33.7756C69.616 33.7756 72.85 32.5468 75.37 30.0893C77.806 27.6317 79.78 24.5386 81.292 20.81C82.804 17.0813 84.064 13.2679 85.072 9.36974L93.64 -22.4087C94.9 -27.1543 96.58 -32.4083 98.68 -38.1708C100.696 -43.9333 103.552 -49.4416 107.248 -54.6956C110.86 -60.0344 115.648 -64.3986 121.612 -67.7883C127.576 -71.2628 135.136 -73 144.292 -73C154.036 -73 162.562 -70.9238 169.87 -66.7714C177.094 -62.7038 183.1 -57.1955 187.888 -50.2466C192.592 -43.2977 196.12 -35.4167 198.472 -26.6035C200.824 -17.875 202 -8.84991 202 0.471765Z"/>
</mask>
<path d="M198.22 1170L16.78 1114.07L16.78 1062.46L198.22 1006.53V1042.12L38.2 1091.95V1085.34L198.22 1134.41V1170ZM160.42 1136.44H128.416L128.416 1039.84H160.42V1136.44ZM198.22 983.748H16.78L16.78 910.531C16.78 897.481 19.384 886.93 24.592 878.88C29.716 870.829 36.184 864.939 43.996 861.211C51.808 857.482 59.704 855.618 67.684 855.618C77.848 855.618 86.29 857.948 93.01 862.609C99.73 867.185 104.224 873.498 106.492 881.549H100.192C102.544 870.109 107.794 861.55 115.942 855.872C124.09 850.11 133.204 847.228 143.284 847.228C154.12 847.228 163.654 849.262 171.886 853.33C180.118 857.313 186.586 863.414 191.29 871.634C195.91 879.854 198.22 890.193 198.22 902.65V983.748ZM165.964 948.665V906.209C165.964 901.548 164.998 897.396 163.066 893.752C161.05 890.108 158.278 887.269 154.75 885.235C151.138 883.117 146.896 882.057 142.024 882.057C137.74 882.057 133.918 882.947 130.558 884.727C127.198 886.506 124.552 889.218 122.62 892.862C120.604 896.421 119.596 900.87 119.596 906.209V948.665H165.964ZM87.592 948.665V911.039C87.592 907.141 86.92 903.667 85.576 900.616C84.232 897.565 82.174 895.15 79.402 893.371C76.546 891.591 72.892 890.701 68.44 890.701C62.896 890.701 58.234 892.438 54.454 895.913C50.674 899.387 48.784 904.429 48.784 911.039V948.665H87.592ZM202 743.321C202 761.625 198.052 777.43 190.156 790.734C182.26 803.954 171.214 814.165 157.018 821.369C142.822 828.487 126.316 832.046 107.5 832.046C88.684 832.046 72.178 828.487 57.982 821.369C43.786 814.165 32.74 803.954 24.844 790.734C16.948 777.43 13 761.625 13 743.321C13 725.016 16.948 709.254 24.844 696.034C32.74 682.73 43.786 672.518 57.982 665.4C72.178 658.197 88.684 654.595 107.5 654.595C126.316 654.595 142.822 658.197 157.018 665.4C171.214 672.518 182.26 682.73 190.156 696.034C198.052 709.254 202 725.016 202 743.321ZM169.744 743.321C169.912 731.711 167.434 722.05 162.31 714.339C157.186 706.627 149.92 700.865 140.512 697.051C131.104 693.153 120.1 691.204 107.5 691.204C94.9 691.204 83.98 693.153 74.74 697.051C65.5 700.865 58.318 706.627 53.194 714.339C48.07 722.05 45.424 731.711 45.256 743.321C45.088 754.93 47.566 764.591 52.69 772.303C57.814 780.014 65.08 785.819 74.488 789.717C83.896 793.531 94.9 795.437 107.5 795.437C120.1 795.437 131.02 793.531 140.26 789.717C149.5 785.819 156.682 780.014 161.806 772.303C166.93 764.591 169.576 754.93 169.744 743.321ZM202 554.732C202 569.477 199.06 582.442 193.18 593.628C187.216 604.814 178.858 613.543 168.106 619.814C157.354 626.085 144.712 629.22 130.18 629.22L17.032 629.22L16.78 594.137H129.928C135.892 594.137 141.31 593.12 146.182 591.086C151.054 589.052 155.254 586.256 158.782 582.697C162.31 579.053 165.04 574.858 166.972 570.112C168.82 565.282 169.744 560.155 169.744 554.732C169.744 549.139 168.778 543.969 166.846 539.224C164.914 534.393 162.184 530.199 158.656 526.639C155.128 523.08 150.928 520.326 146.056 518.377C141.184 516.343 135.808 515.326 129.928 515.326H16.78L16.78 480.243H130.18C144.712 480.243 157.354 483.378 168.106 489.649C178.858 495.92 187.216 504.649 193.18 515.835C199.06 527.021 202 539.986 202 554.732ZM198.22 402.3H48.784V460.01L16.78 460.01L16.78 310.016H48.784L48.784 367.725H198.22V402.3ZM202 171.901C202 186.646 199.06 199.611 193.18 210.797C187.216 221.983 178.858 230.712 168.106 236.983C157.354 243.254 144.712 246.389 130.18 246.389H17.032L16.78 211.306H129.928C135.892 211.306 141.31 210.289 146.182 208.255C151.054 206.221 155.254 203.425 158.782 199.866C162.31 196.222 165.04 192.027 166.972 187.281C168.82 182.451 169.744 177.324 169.744 171.901C169.744 166.308 168.778 161.138 166.846 156.393C164.914 151.562 162.184 147.368 158.656 143.808C155.128 140.249 150.928 137.495 146.056 135.546C141.184 133.512 135.808 132.495 129.928 132.495L16.78 132.495L16.78 97.4119H130.18C144.712 97.4119 157.354 100.547 168.106 106.818C178.858 113.089 187.216 121.818 193.18 133.004C199.06 144.19 202 157.155 202 171.901ZM202 0.471765C202 14.0306 199.648 26.2759 194.944 37.2076C190.156 48.0547 183.352 56.995 174.532 64.0287C165.628 70.9775 155.044 75.3842 142.78 77.2485L137.488 41.1482C147.904 38.6059 155.926 33.3519 161.554 25.3861C167.182 17.4203 169.996 8.35282 169.996 -1.81628C169.996 -7.49403 169.114 -13.0023 167.35 -18.3411C165.586 -23.6799 162.982 -28.0441 159.538 -31.4338C156.094 -34.9082 151.852 -36.6455 146.812 -36.6455C144.964 -36.6455 143.2 -36.3489 141.52 -35.7557C139.756 -35.2472 138.118 -34.3574 136.606 -33.0863C135.094 -31.8151 133.666 -29.9932 132.322 -27.6204C130.978 -25.3323 129.76 -22.4087 128.668 -18.8495L114.808 28.691C113.8 32.2502 112.372 36.4026 110.524 41.1482C108.676 45.809 106.03 50.3427 102.586 54.7494C99.142 59.156 94.606 62.8423 88.978 65.8083C83.266 68.6895 76.084 70.1301 67.432 70.1301C55.252 70.1301 45.13 67.037 37.066 60.8508C29.002 54.6646 22.996 46.4022 19.048 36.0636C15.1 25.725 13.168 14.2848 13.252 1.74291C13.42 -10.8837 15.562 -22.1545 19.678 -32.0694C23.794 -41.9842 29.8 -50.289 37.696 -56.9837C45.508 -63.6783 55.084 -68.5086 66.424 -71.4746L72.724 -34.1032C66.844 -32.7473 61.888 -30.2474 57.856 -26.6035C53.824 -22.9595 50.758 -18.5953 48.658 -13.5107C46.558 -8.51093 45.424 -3.25689 45.256 2.25137C45.088 7.67489 45.844 12.8018 47.524 17.6321C49.12 22.3777 51.472 26.2759 54.58 29.3266C57.688 32.2926 61.384 33.7756 65.668 33.7756C69.616 33.7756 72.85 32.5468 75.37 30.0893C77.806 27.6317 79.78 24.5386 81.292 20.81C82.804 17.0813 84.064 13.2679 85.072 9.36974L93.64 -22.4087C94.9 -27.1543 96.58 -32.4083 98.68 -38.1708C100.696 -43.9333 103.552 -49.4416 107.248 -54.6956C110.86 -60.0344 115.648 -64.3986 121.612 -67.7883C127.576 -71.2628 135.136 -73 144.292 -73C154.036 -73 162.562 -70.9238 169.87 -66.7714C177.094 -62.7038 183.1 -57.1955 187.888 -50.2466C192.592 -43.2977 196.12 -35.4167 198.472 -26.6035C200.824 -17.875 202 -8.84991 202 0.471765Z" stroke="white" stroke-opacity="0.04" stroke-width="2" mask="url(#path-2-outside-1_20_96)"/>
</g>
<defs>
<clipPath id="clip0_20_96">
<rect width="1920" height="1098" fill="white"/>
</clipPath>
</defs>
</svg>
