<svg width="1920" height="1503" viewBox="0 0 1920 1503" fill="none" xmlns="http://www.w3.org/2000/svg">
<g clip-path="url(#clip0_20_119)">
<rect width="1920" height="1503" fill="#0D0D0D"/>
<mask id="path-1-outside-1_20_119" maskUnits="userSpaceOnUse" x="35" y="-36" width="227" height="1564" fill="black">
<rect fill="white" x="35" y="-36" width="227" height="1564"/>
<path d="M256.5 1527H40.5L40.5 1461.51C40.5 1459.92 40.55 1456.64 40.65 1451.67C40.75 1446.7 41.1 1441.93 41.7 1437.33C43.8 1421.03 49.85 1407.21 59.85 1395.88C69.85 1384.54 82.55 1375.92 97.95 1370.02C113.35 1364.11 130.2 1361.16 148.5 1361.16C166.8 1361.16 183.65 1364.11 199.05 1370.02C214.45 1375.92 227.15 1384.54 237.15 1395.88C247.15 1407.21 253.2 1421.03 255.3 1437.33C255.9 1441.93 256.25 1446.7 256.35 1451.67C256.45 1456.64 256.5 1459.92 256.5 1461.51V1527ZM218.1 1488.21V1461.51C218.1 1458.98 218.05 1455.56 217.95 1451.25C217.75 1446.94 217.3 1443.05 216.6 1439.58C214.7 1430.78 210.3 1423.61 203.4 1418.08C196.5 1412.46 188.2 1408.34 178.5 1405.71C168.8 1403 158.8 1401.64 148.5 1401.64C137.7 1401.64 127.45 1403.04 117.75 1405.85C108.05 1408.57 99.85 1412.74 93.15 1418.36C86.45 1423.98 82.2 1431.06 80.4 1439.58C79.6 1443.05 79.15 1446.94 79.05 1451.25C78.95 1455.56 78.9 1458.98 78.9 1461.51V1488.21H218.1ZM256.5 1327.44H40.5L40.5 1195.33H78.6L78.6 1289.22H124.8L124.8 1212.2H162.9V1289.22H218.4V1195.33H256.5L256.5 1327.44ZM261 1085.19C261 1100.18 258.2 1113.72 252.6 1125.81C246.9 1137.8 238.8 1147.69 228.3 1155.46C217.7 1163.15 205.1 1168.02 190.5 1170.08L184.2 1130.17C196.6 1127.36 206.15 1121.55 212.85 1112.74C219.55 1103.93 222.9 1093.91 222.9 1082.66C222.9 1076.39 221.85 1070.3 219.75 1064.39C217.65 1058.49 214.55 1053.67 210.45 1049.92C206.35 1046.08 201.3 1044.16 195.3 1044.16C193.1 1044.16 191 1044.48 189 1045.14C186.9 1045.7 184.95 1046.69 183.15 1048.09C181.35 1049.5 179.65 1051.51 178.05 1054.13C176.45 1056.66 175 1059.9 173.7 1063.83L157.2 1116.39C156 1120.33 154.3 1124.92 152.1 1130.17C149.9 1135.32 146.75 1140.33 142.65 1145.2C138.55 1150.08 133.15 1154.15 126.45 1157.43C119.65 1160.62 111.1 1162.21 100.8 1162.21C86.3 1162.21 74.25 1158.79 64.65 1151.95C55.05 1145.11 47.9 1135.98 43.2 1124.55C38.5 1113.11 36.2 1100.47 36.3 1086.6C36.5 1072.64 39.05 1060.18 43.95 1049.22C48.85 1038.25 56 1029.07 65.4 1021.67C74.7 1014.27 86.1 1008.93 99.6 1005.65L107.1 1046.97C100.1 1048.47 94.2 1051.23 89.4 1055.26C84.6 1059.29 80.95 1064.11 78.45 1069.73C75.95 1075.26 74.6 1081.07 74.4 1087.16C74.2 1093.16 75.1 1098.83 77.1 1104.17C79 1109.41 81.8 1113.72 85.5 1117.1C89.2 1120.38 93.6 1122.02 98.7 1122.02C103.4 1122.02 107.25 1120.66 110.25 1117.94C113.15 1115.22 115.5 1111.8 117.3 1107.68C119.1 1103.56 120.6 1099.34 121.8 1095.03L132 1059.9C133.5 1054.65 135.5 1048.84 138 1042.47C140.4 1036.1 143.8 1030.01 148.2 1024.2C152.5 1018.3 158.2 1013.47 165.3 1009.72C172.4 1005.88 181.4 1003.96 192.3 1003.96C203.9 1003.96 214.05 1006.26 222.75 1010.85C231.35 1015.34 238.5 1021.43 244.2 1029.12C249.8 1036.8 254 1045.51 256.8 1055.26C259.6 1064.91 261 1074.89 261 1085.19ZM256.5 970.26H40.5L40.5 932.032H256.5V970.26ZM261 805.574C261 818.316 258.6 830.45 253.8 841.974C248.9 853.499 241.7 863.711 232.2 872.612C222.7 881.419 210.95 888.4 196.95 893.553C182.95 898.612 166.8 901.142 148.5 901.142C124.6 901.142 104.3 896.879 87.6 888.353C70.8 879.733 58 868.208 49.2 853.78C40.4 839.257 36 823.188 36 805.574C36 779.527 42.45 759.055 55.35 744.158C68.25 729.26 86.5 719.282 110.1 714.222L116.1 753.293C103.5 756.947 93.45 762.943 85.95 771.282C78.35 779.527 74.5 790.115 74.4 803.044C74.2 815.88 77.15 826.561 83.25 835.088C89.35 843.614 98 850.032 109.2 854.342C120.4 858.558 133.5 860.666 148.5 860.666C163.5 860.666 176.5 858.558 187.5 854.342C198.5 850.032 207.05 843.614 213.15 835.088C219.25 826.561 222.4 815.88 222.6 803.044C222.8 794.331 221.2 786.46 217.8 779.433C214.4 772.313 209.05 766.316 201.75 761.444C194.45 756.572 185.1 753.105 173.7 751.044V783.087H142.2V710.287C143.5 710.1 145.8 709.959 149.1 709.866C152.4 709.772 154.3 709.725 154.8 709.725C175.5 709.725 193.85 713.66 209.85 721.53C225.85 729.401 238.4 740.504 247.5 754.839C256.5 769.174 261 786.086 261 805.574ZM256.5 681.557L40.5 681.558L40.5 642.768L184.5 554.789H40.5L40.5 516L256.5 516L256.5 554.789L112.5 642.768H256.5V681.557ZM256.5 476.785L40.5 476.785L40.5 344.676H78.6L78.6 438.558H124.8L124.8 361.541H162.9L162.9 438.558H218.4V344.676H256.5V476.785ZM256.5 310.99H40.5L40.5 225.541C40.5 223.574 40.6 220.95 40.8 217.671C40.9 214.298 41.2 211.3 41.7 208.676C43.7 196.59 47.95 186.705 54.45 179.022C60.95 171.246 69.15 165.53 79.05 161.876C88.85 158.222 99.8 156.395 111.9 156.395C130 156.395 145.5 160.611 158.4 169.044C171.2 177.476 179.1 190.687 182.1 208.676L183.3 225.541V272.763H256.5V310.99ZM256.5 196.871L168.6 236.784L160.5 197.433L256.5 153.584V196.871ZM145.2 272.763V227.228C145.2 225.26 145.1 223.105 144.9 220.763C144.7 218.42 144.3 216.266 143.7 214.298C142.2 209.145 139.7 205.163 136.2 202.352C132.6 199.541 128.65 197.62 124.35 196.59C119.95 195.465 115.8 194.903 111.9 194.903C108 194.903 103.9 195.465 99.6 196.59C95.2 197.62 91.25 199.541 87.75 202.352C84.15 205.163 81.6 209.145 80.1 214.298C79.5 216.266 79.1 218.42 78.9 220.763C78.7 223.105 78.6 225.26 78.6 227.228L78.6 272.763H145.2ZM261 46.2328C261 61.2238 258.2 74.7626 252.6 86.8491C246.9 98.842 238.8 108.727 228.3 116.503C217.7 124.186 205.1 129.058 190.5 131.12L184.2 91.2059C196.6 88.3951 206.15 82.586 212.85 73.7788C219.55 64.9716 222.9 54.9463 222.9 43.703C222.9 37.4255 221.85 31.3354 219.75 25.4327C217.65 19.5299 214.55 14.7047 210.45 10.9569C206.35 7.11548 201.3 5.19475 195.3 5.19475C193.1 5.19475 191 5.52268 189 6.17855C186.9 6.74071 184.95 7.72449 183.15 9.1299C181.35 10.5353 179.65 12.5497 178.05 15.1732C176.45 17.7029 175 20.9354 173.7 24.8705L157.2 77.4329C156 81.368 154.3 85.959 152.1 91.2059C149.9 96.3591 146.75 101.372 142.65 106.244C138.55 111.116 133.15 115.192 126.45 118.471C119.65 121.656 111.1 123.249 100.8 123.249C86.3 123.249 74.25 119.829 64.65 112.99C55.05 106.15 47.9 97.0149 43.2 85.5843C38.5 74.1536 36.2 61.5049 36.3 47.6382C36.5 33.6778 39.05 21.2164 43.95 10.2542C48.85 -0.707965 56 -9.88998 65.4 -17.2918C74.6999 -24.6936 86.1 -30.0342 99.6 -33.3135L107.1 8.00558C100.1 9.50469 94.2 12.2687 89.4 16.2975C84.6 20.3264 80.95 25.1516 78.45 30.7732C75.95 36.3012 74.6 42.1102 74.3999 48.2003C74.2 54.1968 75.1 59.8652 77.1 65.2058C79 70.4527 81.8 74.7626 85.5 78.1356C89.2 81.4149 93.6 83.0545 98.7 83.0545C103.4 83.0545 107.25 81.696 110.25 78.9788C113.15 76.2617 115.5 72.8419 117.3 68.7193C119.1 64.5968 120.6 60.3806 121.8 56.0706L132 20.9354C133.5 15.6885 135.5 9.87946 138 3.50827C140.4 -2.86293 143.8 -8.95304 148.2 -14.7621C152.5 -20.6648 158.2 -25.4901 165.3 -29.2378C172.4 -33.0793 181.4 -35 192.3 -35C203.9 -35 214.05 -32.7045 222.75 -28.1135C231.35 -23.6162 238.5 -17.5261 244.2 -9.84315C249.8 -2.16023 254 6.55332 256.8 16.2975C259.6 25.948 261 35.9264 261 46.2328Z"/>
</mask>
<path d="M256.5 1527H40.5L40.5 1461.51C40.5 1459.92 40.55 1456.64 40.65 1451.67C40.75 1446.7 41.1 1441.93 41.7 1437.33C43.8 1421.03 49.85 1407.21 59.85 1395.88C69.85 1384.54 82.55 1375.92 97.95 1370.02C113.35 1364.11 130.2 1361.16 148.5 1361.16C166.8 1361.16 183.65 1364.11 199.05 1370.02C214.45 1375.92 227.15 1384.54 237.15 1395.88C247.15 1407.21 253.2 1421.03 255.3 1437.33C255.9 1441.93 256.25 1446.7 256.35 1451.67C256.45 1456.64 256.5 1459.92 256.5 1461.51V1527ZM218.1 1488.21V1461.51C218.1 1458.98 218.05 1455.56 217.95 1451.25C217.75 1446.94 217.3 1443.05 216.6 1439.58C214.7 1430.78 210.3 1423.61 203.4 1418.08C196.5 1412.46 188.2 1408.34 178.5 1405.71C168.8 1403 158.8 1401.64 148.5 1401.64C137.7 1401.64 127.45 1403.04 117.75 1405.85C108.05 1408.57 99.85 1412.74 93.15 1418.36C86.45 1423.98 82.2 1431.06 80.4 1439.58C79.6 1443.05 79.15 1446.94 79.05 1451.25C78.95 1455.56 78.9 1458.98 78.9 1461.51V1488.21H218.1ZM256.5 1327.44H40.5L40.5 1195.33H78.6L78.6 1289.22H124.8L124.8 1212.2H162.9V1289.22H218.4V1195.33H256.5L256.5 1327.44ZM261 1085.19C261 1100.18 258.2 1113.72 252.6 1125.81C246.9 1137.8 238.8 1147.69 228.3 1155.46C217.7 1163.15 205.1 1168.02 190.5 1170.08L184.2 1130.17C196.6 1127.36 206.15 1121.55 212.85 1112.74C219.55 1103.93 222.9 1093.91 222.9 1082.66C222.9 1076.39 221.85 1070.3 219.75 1064.39C217.65 1058.49 214.55 1053.67 210.45 1049.92C206.35 1046.08 201.3 1044.16 195.3 1044.16C193.1 1044.16 191 1044.48 189 1045.14C186.9 1045.7 184.95 1046.69 183.15 1048.09C181.35 1049.5 179.65 1051.51 178.05 1054.13C176.45 1056.66 175 1059.9 173.7 1063.83L157.2 1116.39C156 1120.33 154.3 1124.92 152.1 1130.17C149.9 1135.32 146.75 1140.33 142.65 1145.2C138.55 1150.08 133.15 1154.15 126.45 1157.43C119.65 1160.62 111.1 1162.21 100.8 1162.21C86.3 1162.21 74.25 1158.79 64.65 1151.95C55.05 1145.11 47.9 1135.98 43.2 1124.55C38.5 1113.11 36.2 1100.47 36.3 1086.6C36.5 1072.64 39.05 1060.18 43.95 1049.22C48.85 1038.25 56 1029.07 65.4 1021.67C74.7 1014.27 86.1 1008.93 99.6 1005.65L107.1 1046.97C100.1 1048.47 94.2 1051.23 89.4 1055.26C84.6 1059.29 80.95 1064.11 78.45 1069.73C75.95 1075.26 74.6 1081.07 74.4 1087.16C74.2 1093.16 75.1 1098.83 77.1 1104.17C79 1109.41 81.8 1113.72 85.5 1117.1C89.2 1120.38 93.6 1122.02 98.7 1122.02C103.4 1122.02 107.25 1120.66 110.25 1117.94C113.15 1115.22 115.5 1111.8 117.3 1107.68C119.1 1103.56 120.6 1099.34 121.8 1095.03L132 1059.9C133.5 1054.65 135.5 1048.84 138 1042.47C140.4 1036.1 143.8 1030.01 148.2 1024.2C152.5 1018.3 158.2 1013.47 165.3 1009.72C172.4 1005.88 181.4 1003.96 192.3 1003.96C203.9 1003.96 214.05 1006.26 222.75 1010.85C231.35 1015.34 238.5 1021.43 244.2 1029.12C249.8 1036.8 254 1045.51 256.8 1055.26C259.6 1064.91 261 1074.89 261 1085.19ZM256.5 970.26H40.5L40.5 932.032H256.5V970.26ZM261 805.574C261 818.316 258.6 830.45 253.8 841.974C248.9 853.499 241.7 863.711 232.2 872.612C222.7 881.419 210.95 888.4 196.95 893.553C182.95 898.612 166.8 901.142 148.5 901.142C124.6 901.142 104.3 896.879 87.6 888.353C70.8 879.733 58 868.208 49.2 853.78C40.4 839.257 36 823.188 36 805.574C36 779.527 42.45 759.055 55.35 744.158C68.25 729.26 86.5 719.282 110.1 714.222L116.1 753.293C103.5 756.947 93.45 762.943 85.95 771.282C78.35 779.527 74.5 790.115 74.4 803.044C74.2 815.88 77.15 826.561 83.25 835.088C89.35 843.614 98 850.032 109.2 854.342C120.4 858.558 133.5 860.666 148.5 860.666C163.5 860.666 176.5 858.558 187.5 854.342C198.5 850.032 207.05 843.614 213.15 835.088C219.25 826.561 222.4 815.88 222.6 803.044C222.8 794.331 221.2 786.46 217.8 779.433C214.4 772.313 209.05 766.316 201.75 761.444C194.45 756.572 185.1 753.105 173.7 751.044V783.087H142.2V710.287C143.5 710.1 145.8 709.959 149.1 709.866C152.4 709.772 154.3 709.725 154.8 709.725C175.5 709.725 193.85 713.66 209.85 721.53C225.85 729.401 238.4 740.504 247.5 754.839C256.5 769.174 261 786.086 261 805.574ZM256.5 681.557L40.5 681.558L40.5 642.768L184.5 554.789H40.5L40.5 516L256.5 516L256.5 554.789L112.5 642.768H256.5V681.557ZM256.5 476.785L40.5 476.785L40.5 344.676H78.6L78.6 438.558H124.8L124.8 361.541H162.9L162.9 438.558H218.4V344.676H256.5V476.785ZM256.5 310.99H40.5L40.5 225.541C40.5 223.574 40.6 220.95 40.8 217.671C40.9 214.298 41.2 211.3 41.7 208.676C43.7 196.59 47.95 186.705 54.45 179.022C60.95 171.246 69.15 165.53 79.05 161.876C88.85 158.222 99.8 156.395 111.9 156.395C130 156.395 145.5 160.611 158.4 169.044C171.2 177.476 179.1 190.687 182.1 208.676L183.3 225.541V272.763H256.5V310.99ZM256.5 196.871L168.6 236.784L160.5 197.433L256.5 153.584V196.871ZM145.2 272.763V227.228C145.2 225.26 145.1 223.105 144.9 220.763C144.7 218.42 144.3 216.266 143.7 214.298C142.2 209.145 139.7 205.163 136.2 202.352C132.6 199.541 128.65 197.62 124.35 196.59C119.95 195.465 115.8 194.903 111.9 194.903C108 194.903 103.9 195.465 99.6 196.59C95.2 197.62 91.25 199.541 87.75 202.352C84.15 205.163 81.6 209.145 80.1 214.298C79.5 216.266 79.1 218.42 78.9 220.763C78.7 223.105 78.6 225.26 78.6 227.228L78.6 272.763H145.2ZM261 46.2328C261 61.2238 258.2 74.7626 252.6 86.8491C246.9 98.842 238.8 108.727 228.3 116.503C217.7 124.186 205.1 129.058 190.5 131.12L184.2 91.2059C196.6 88.3951 206.15 82.586 212.85 73.7788C219.55 64.9716 222.9 54.9463 222.9 43.703C222.9 37.4255 221.85 31.3354 219.75 25.4327C217.65 19.5299 214.55 14.7047 210.45 10.9569C206.35 7.11548 201.3 5.19475 195.3 5.19475C193.1 5.19475 191 5.52268 189 6.17855C186.9 6.74071 184.95 7.72449 183.15 9.1299C181.35 10.5353 179.65 12.5497 178.05 15.1732C176.45 17.7029 175 20.9354 173.7 24.8705L157.2 77.4329C156 81.368 154.3 85.959 152.1 91.2059C149.9 96.3591 146.75 101.372 142.65 106.244C138.55 111.116 133.15 115.192 126.45 118.471C119.65 121.656 111.1 123.249 100.8 123.249C86.3 123.249 74.25 119.829 64.65 112.99C55.05 106.15 47.9 97.0149 43.2 85.5843C38.5 74.1536 36.2 61.5049 36.3 47.6382C36.5 33.6778 39.05 21.2164 43.95 10.2542C48.85 -0.707965 56 -9.88998 65.4 -17.2918C74.6999 -24.6936 86.1 -30.0342 99.6 -33.3135L107.1 8.00558C100.1 9.50469 94.2 12.2687 89.4 16.2975C84.6 20.3264 80.95 25.1516 78.45 30.7732C75.95 36.3012 74.6 42.1102 74.3999 48.2003C74.2 54.1968 75.1 59.8652 77.1 65.2058C79 70.4527 81.8 74.7626 85.5 78.1356C89.2 81.4149 93.6 83.0545 98.7 83.0545C103.4 83.0545 107.25 81.696 110.25 78.9788C113.15 76.2617 115.5 72.8419 117.3 68.7193C119.1 64.5968 120.6 60.3806 121.8 56.0706L132 20.9354C133.5 15.6885 135.5 9.87946 138 3.50827C140.4 -2.86293 143.8 -8.95304 148.2 -14.7621C152.5 -20.6648 158.2 -25.4901 165.3 -29.2378C172.4 -33.0793 181.4 -35 192.3 -35C203.9 -35 214.05 -32.7045 222.75 -28.1135C231.35 -23.6162 238.5 -17.5261 244.2 -9.84315C249.8 -2.16023 254 6.55332 256.8 16.2975C259.6 25.948 261 35.9264 261 46.2328Z" stroke="white" stroke-opacity="0.1" stroke-width="2" mask="url(#path-1-outside-1_20_119)"/>
</g>
<defs>
<clipPath id="clip0_20_119">
<rect width="1920" height="1503" fill="white"/>
</clipPath>
</defs>
</svg>
