<svg width="1920" height="1098" viewBox="0 0 1920 1098" fill="none" xmlns="http://www.w3.org/2000/svg">
<rect width="1920" height="1098" fill="#0D0D0D"/>
<path d="M1597.5 121.5H1597V122V163.4V163.9H1597.5H1739.82L1597.23 256.881L1597 257.029V257.3V298.7V299.2H1597.5L1813.5 299.2H1814V298.7L1814 257.3V256.8H1813.5H1671.18L1813.77 163.819L1814 163.671V163.4L1814 122V121.5H1813.5L1597.5 121.5ZM1597.5 340.055H1597V340.555V481.555V482.055H1597.5H1635.6H1636.1V481.555V381.855H1690.6L1690.6 463.555V464.055H1691.1H1729.2H1729.7V463.555V381.855H1774.9L1774.9 481.555V482.055H1775.4H1813.5H1814V481.555L1814 340.555V340.055H1813.5L1597.5 340.055ZM1597.36 562.328L1597 562.433V562.808V603.008V603.385L1597.36 603.488L1741.49 644.858L1597.36 686.227L1597 686.331V686.708V726.908V727.282L1597.36 727.388L1813.36 790.688L1814 790.875V790.208L1814 747.308V746.926L1813.63 746.825L1666.9 706.808L1813.63 666.79L1814 666.689L1814 666.304L1813.7 623.404L1813.7 623.025L1813.33 622.926L1666.9 582.908L1813.63 542.89L1814 542.79V542.408L1814 499.508V498.84L1813.36 499.028L1597.36 562.328ZM1600.94 846.472L1600.94 846.477C1595.31 859.448 1592.5 873.967 1592.5 890.026C1592.5 901.068 1593.91 911.762 1596.72 922.106C1599.53 932.555 1603.75 941.908 1609.39 950.158L1609.39 950.161C1615.13 958.423 1622.34 964.975 1631.01 969.812C1639.79 974.76 1650.03 977.226 1661.7 977.226C1672.66 977.226 1681.75 975.165 1688.95 971.01C1696.11 966.976 1701.86 961.777 1706.21 955.412C1710.63 949.178 1714.05 942.639 1716.47 935.795C1718.97 928.986 1720.98 922.773 1722.48 917.156C1722.48 917.156 1722.48 917.155 1722.48 917.155L1732.68 879.657L1732.68 879.652C1733.88 875.074 1735.37 870.595 1737.16 866.215C1738.94 861.868 1741.26 858.278 1744.1 855.432C1746.99 852.636 1750.71 851.226 1755.3 851.226C1760.27 851.226 1764.55 852.926 1768.15 856.337C1771.79 859.874 1774.55 864.402 1776.43 869.936L1776.43 869.941C1778.41 875.58 1779.3 881.568 1779.1 887.91L1779.1 887.91C1778.9 894.35 1777.57 900.489 1775.09 906.331L1775.09 906.334C1772.62 912.265 1769.01 917.354 1764.27 921.603C1759.54 925.841 1753.72 928.755 1746.79 930.338L1746.33 930.444L1746.41 930.91L1753.91 975.01L1754 975.546L1754.53 975.41C1768.09 971.894 1779.56 966.163 1788.92 958.208C1798.39 950.255 1805.58 940.389 1810.51 928.619C1815.44 916.851 1818 903.486 1818.2 888.533H1818.2L1818.2 888.529C1818.3 873.675 1815.99 860.112 1811.27 847.846C1806.54 835.567 1799.33 825.739 1789.65 818.378C1779.95 810.999 1767.79 807.326 1753.2 807.326C1742.85 807.326 1734.22 809.034 1727.33 812.479L1727.32 812.483C1720.56 816.011 1715.11 820.404 1710.96 825.666C1706.83 830.9 1703.66 836.291 1701.44 841.84L1701.43 841.843C1699.23 847.452 1697.53 852.367 1696.32 856.586C1696.32 856.587 1696.32 856.588 1696.32 856.588L1679.82 912.678C1679.82 912.679 1679.82 912.68 1679.82 912.681C1678.53 916.856 1677.09 920.266 1675.52 922.921L1675.52 922.928C1673.94 925.694 1672.27 927.791 1670.53 929.242C1668.78 930.7 1666.89 931.716 1664.86 932.295L1664.85 932.299L1664.83 932.304C1662.89 932.985 1660.85 933.326 1658.7 933.326C1652.83 933.326 1647.91 931.325 1643.9 927.322L1643.9 927.318C1639.86 923.382 1636.8 918.304 1634.72 912.068C1632.64 905.819 1631.6 899.373 1631.6 892.726C1631.6 880.825 1634.92 870.228 1641.56 860.916C1648.18 851.625 1657.62 845.487 1669.92 842.512L1670.36 842.404L1670.29 841.953L1663.99 799.353L1663.92 798.857L1663.43 798.931C1648.75 801.143 1636.07 806.373 1625.39 814.63L1625.39 814.634C1614.82 822.986 1606.67 833.602 1600.94 846.472Z" stroke="#252527"/>
</svg>
